<?xml version="1.0" encoding="utf-8"?>
<!-- Generator: Adobe Illustrator 15.1.0, SVG Export Plug-In . SVG Version: 6.00 Build 0)  -->
<!DOCTYPE svg PUBLIC "-//W3C//DTD SVG 1.1//EN" "http://www.w3.org/Graphics/SVG/1.1/DTD/svg11.dtd">
<svg version="1.1" id="new_ic" xmlns="http://www.w3.org/2000/svg" xmlns:xlink="http://www.w3.org/1999/xlink" x="0px" y="0px"
	 width="2052px" height="841.9px" viewBox="0 0 2052 841.9" enable-background="new 0 0 2052 841.9" xml:space="preserve">
<title>leave</title>
<desc>Created with Sketch.</desc>
<path fill="none" stroke="#000000" stroke-miterlimit="10" d="M227.132-403.663"/>
<path fill="none" d="M220.864-404.012c0.014,0.231,0.035,0.462,0.035,0.698v-0.698H220.864z"/>
<polygon fill="none" points="78.13,-398.785 87.364,-398.785 78.13,-408.541 "/>
<path fill="#DC7931" d="M228.438,60.458c-1.455,0-2.635-1.18-2.635-2.636c0-1.457,1.181-2.638,2.635-2.638c0.001,0,0.001,0,0.001,0
	h23.554c-0.642-13.542-5.938-25.862-14.315-35.417l-15.832,15.819l-0.001,0.003c-1.028,1.027-2.699,1.027-3.73-0.003
	c-1.031-1.029-1.031-2.698-0.001-3.727h0.001h-0.001l15.91-15.898C224.035,6.456,210.669,0.476,195.903,0v22.059v0.001
	c0,1.454-1.179,2.633-2.636,2.633c-1.458,0-2.64-1.18-2.64-2.633v-0.001V0.057c-13.986,0.802-26.637,6.549-36.246,15.519
	l15.667,15.658c0.001,0,0.001,0.001,0.004,0.003c1.028,1.029,1.028,2.698-0.003,3.727c-1.03,1.029-2.7,1.029-3.73,0.001v-0.001
	l-15.631-15.62c-8.591,9.614-14.029,22.099-14.681,35.84h23.552h0.001c1.455,0,2.637,1.181,2.637,2.638
	c0,1.456-1.182,2.636-2.637,2.636h-0.001H136C137.302,91.352,162.764,116,194.001,116c31.234,0,56.696-24.648,57.999-55.542H228.438
	C228.439,60.458,228.439,60.458,228.438,60.458z M199.891,94.872h-1.972c-0.596,1.676-2.18,2.881-4.059,2.881
	c-1.879,0-3.463-1.205-4.06-2.881h-2.181c-0.948,0-1.715-0.768-1.715-1.714c0-0.943,0.768-1.712,1.715-1.712h12.271
	c0.948,0,1.715,0.77,1.715,1.712C201.606,94.104,200.839,94.872,199.891,94.872z M201.071,88.386h-14.634
	c-0.945,0-1.714-0.769-1.714-1.714c0-0.947,0.769-1.714,1.714-1.714h14.634c0.948,0,1.716,0.767,1.716,1.714
	C202.787,87.617,202.02,88.386,201.071,88.386z M207.871,68.019v0.031c-3.053,3.273-4.935,7.652-4.935,12.48
	c0,0.421,0.034,0.836,0.062,1.25h-18v-1.25v-1.008h-0.051c-0.23-4.218-1.876-8.049-4.487-11.035v-0.118
	c-2.969-3.257-4.794-7.573-4.794-12.326c0-10.123,8.212-18.329,18.341-18.329c10.131,0,18.341,8.206,18.341,18.329
	C212.348,60.625,210.654,64.805,207.871,68.019z"/>
<g>
	<path fill="#EA9E31" d="M1001.75,25.231c-12.812,0-23.197,10.382-23.197,23.193c0,12.81,10.387,23.196,23.197,23.196
		c12.809,0,23.196-10.386,23.196-23.196C1024.946,35.613,1014.559,25.231,1001.75,25.231z M1002.598,63.239
		c-6.928,0.013-11.497-4.193-13.507-9.062c-1.534,0-3.068,0-4.605,0c0-1.277,0-2.558,0-3.835c1.229,0,2.452,0,3.682,0
		c-0.126-1.299-0.199-2.413,0-3.686c-0.918-0.356-2.502-0.054-3.682-0.154c0-1.281,0-2.56,0-3.837c1.536,0,3.071,0,4.605,0
		c2.056-4.448,6.259-8.523,12.741-8.754c4.43-0.155,8.143,1.416,10.903,3.688c-0.469,1.169-1.378,1.899-1.845,3.069
		c-4.102-4.354-15.015-3.88-17.193,1.845c3.014,0.356,6.7,0.048,9.978,0.153c0,1.277,0,2.556,0,3.837c-3.731,0-7.471,0-11.209,0
		c-0.495,1.003-0.263,2.6-0.15,3.84c3.788,0,7.573,0,11.359,0c0,1.278,0,2.559,0,3.835c-3.276,0-6.55,0-9.827,0
		c1.14,2.877,4.495,5.295,8.597,5.375c3.837,0.073,6.803-1.942,9.061-3.683c0.536,1.047,1.315,1.855,2,2.76
		C1010.902,61.28,1007.169,63.226,1002.598,63.239z"/>
	<path fill="#EA9E31" d="M1054.643,95.023c8.34-10.045,13.357-22.948,13.357-37.025C1068,25.968,1042.031,0,1009.998,0
		C977.968,0,952,25.968,952,57.999C952,90.031,977.968,116,1009.998,116c14.628,0,27.98-5.428,38.185-14.363l-29.111-29.114
		c-4.835,3.466-10.743,5.529-17.144,5.529c-16.288,0-29.485-13.201-29.485-29.486c0-16.283,13.197-29.48,29.485-29.48
		c16.28,0,29.481,13.197,29.481,29.48c0,6.545-2.158,12.572-5.768,17.462L1054.643,95.023z"/>
</g>
<g>
	<path fill="#E46B48" d="M1154.075,62.626c-0.004,0-0.011,0-0.015,0h-12.732c-0.004,0-0.01,0-0.015,0
		c-1.197,0-2.169,0.971-2.169,2.169c0,1.201,0.972,2.172,2.169,2.172h0.001v0.002h12.761v-0.002c1.196,0,2.167-0.971,2.167-2.169
		C1156.242,63.597,1155.271,62.626,1154.075,62.626z"/>
	<path fill="#E46B48" d="M1153.085,0.133c1.332,1.355,2.16,3.213,2.16,5.267c0,4.148-3.354,7.512-7.497,7.512
		c-4.145,0-7.502-3.363-7.502-7.512c0-2.125,0.89-4.034,2.307-5.4C1112.601,2.277,1089,27.323,1089,57.907
		c0,32.083,25.968,58.093,58,58.093c32.033,0,58-26.011,58-58.093C1205,27.881,1182.257,3.179,1153.085,0.133z M1147.748,26.49
		c4.143,0,7.497,3.364,7.497,7.511c0,4.149-3.354,7.512-7.497,7.512c-4.145,0-7.502-3.363-7.502-7.512
		C1140.246,29.854,1143.604,26.49,1147.748,26.49z M1173.502,82.309c-0.227,0-0.443-0.037-0.662-0.067
		c-2.177,4.818-5.823,8.609-10.398,11.132c0.378,0.666,0.609,1.428,0.609,2.25c0,2.543-2.059,2.927-4.599,2.927
		c-2.259,0-4.128-0.315-4.515-2.175c-1.877,0.349-3.819,0.547-5.821,0.547c-1.953,0-3.896-0.235-5.793-0.632
		c-0.351,1.929-2.233,2.259-4.524,2.259c-2.538,0-4.599-0.384-4.599-2.927c0-0.903,0.27-1.737,0.718-2.447
		c-6.576-3.644-11.277-9.546-11.277-15.93c0-1.256,0.133-2.437,0.323-3.584c-1.118-0.855-2.37-1.212-3.59-0.806
		c-0.062-0.054-0.08-0.135-0.058-0.235c0.104-0.225,0.192-0.391,0.39-0.664c1.128-1.568,2.765-2.42,4.457-2.547
		c3.708-8.959,13.738-13.54,23.953-13.54c6.458,0,12.383,2.275,17.023,6.065c0.771-0.509,1.64-0.871,2.576-1.027
		c3.525-0.598,6.627,1.86,6.927,5.487c0.025,0.336,0.02,0.525-0.011,0.767c-0.032,0.097-0.091,0.161-0.169,0.175
		c-0.904-1.062-2.313-1.385-3.859-1.122c-0.074,0.013-0.156,0.028-0.229,0.045c-0.279,0.062-0.545,0.158-0.806,0.267
		c1.521,2,2.762,4.22,3.684,6.601c0.084-0.004,0.164-0.025,0.25-0.025c2.54,0,2.923,2.061,2.923,4.604
		C1176.425,80.247,1176.042,82.309,1173.502,82.309z"/>
</g>
<g>
	<path fill="#E94458" d="M1300.858,62.059h-4.988c-0.583,0-1.061,0.361-1.061,0.808v7.353c0,0.447,0.478,0.808,1.061,0.808h4.988
		c0.586,0,1.062-0.361,1.062-0.808v-7.353C1301.921,62.419,1301.444,62.059,1300.858,62.059z"/>
	<path fill="#E94458" d="M1290.226,62.059h-4.987c-0.586,0-1.061,0.361-1.061,0.808v7.353c0,0.447,0.475,0.808,1.061,0.808h4.987
		c0.587,0,1.061-0.361,1.061-0.808v-7.353C1291.285,62.419,1290.812,62.059,1290.226,62.059z"/>
	<path fill="#E94458" d="M1311.488,62.059h-4.988c-0.583,0-1.061,0.361-1.061,0.808v7.353c0,0.447,0.478,0.808,1.061,0.808h4.988
		c0.586,0,1.062-0.361,1.062-0.808v-7.353C1312.551,62.419,1312.074,62.059,1311.488,62.059z"/>
	<path fill="#E94458" d="M1279.599,62.059h-4.987c-0.586,0-1.062,0.361-1.062,0.808v7.353c0,0.447,0.478,0.808,1.062,0.808h4.987
		c0.583,0,1.061-0.361,1.061-0.808v-7.353C1280.658,62.419,1280.182,62.059,1279.599,62.059z"/>
	<path fill="#E94458" d="M1315.604,97.061L1315.604,97.061h11.271C1336.268,86.753,1342,73.047,1342,57.999
		C1342,25.969,1316.031,0,1284,0c-32.033,0-58,25.969-58,57.999c0,15.048,5.729,28.754,15.125,39.06l12.109,0.001h0.003
		c1.305,0,2.364,1.058,2.364,2.366c0,1.303-1.058,2.365-2.364,2.365h-0.003h-7.242C1256.171,110.634,1269.456,116,1284,116
		c14.542,0,27.826-5.366,38.006-14.209h-6.402c-1.311-0.001-2.364-1.062-2.364-2.365
		C1313.238,98.119,1314.293,97.062,1315.604,97.061z M1247.92,65.749v15.533c0,1.042-0.849,1.892-1.895,1.892
		c-1.045,0-1.895-0.85-1.895-1.892V65.749c-4.655-0.886-8.175-4.973-8.175-9.885c0-5.562,4.509-10.066,10.067-10.066
		c5.562,0,10.07,4.505,10.07,10.066C1256.096,60.776,1252.575,64.863,1247.92,65.749z M1296.396,101.791h-23.953
		c-1.309,0-2.365-1.062-2.365-2.365c0-1.308,1.058-2.366,2.365-2.366v-0.001l23.953,0.001c1.306,0,2.364,1.058,2.364,2.366
		C1298.762,100.729,1297.705,101.791,1296.396,101.791z M1287.004,83.043l-19.34,0.131l4.539-63.646h8.621l3.261,32.406h0.38
		l20.264-15.372c0.709-0.521,1.281-0.227,1.278,0.651l-0.056,12.39c-0.009,0.878,0.571,1.175,1.285,0.66l18.687-13.479
		c0.71-0.514,1.294-0.215,1.294,0.66V81.47c0,0.878-0.719,1.595-1.596,1.595L1287.004,83.043z"/>
	<path fill="#E94458" d="M1322.124,62.059h-4.988c-0.586,0-1.06,0.361-1.06,0.808v7.353c0,0.447,0.474,0.808,1.06,0.808h4.988
		c0.586,0,1.06-0.361,1.06-0.808v-7.353C1323.184,62.419,1322.71,62.059,1322.124,62.059z"/>
</g>
<path fill="#E46B48" d="M738.999,0C706.968,0,681,25.967,681,58c0,32.032,25.968,58,57.999,58C771.032,116,797,90.033,797,58
	S771.032,0,738.999,0z M768.633,63.125l4.066,0.008l0.576,13.476c-0.177,1.355-1.314,2.401-2.713,2.401
	c-1.391,0-2.527-1.036-2.707-2.38L768.633,63.125z M747.222,8.03c0.565,0,1.375,0.418,1.574,1.019l4.51,12.267
	c-0.087,1.443-1.275,2.582-2.735,2.582c-1.409,0-2.554-1.057-2.72-2.422c-0.003,0-0.009,0-0.012,0l-2.719-13.45L747.222,8.03z
	 M737.64,8.01l4.067,0.009l0.576,13.476c-0.176,1.355-1.314,2.401-2.712,2.401c-1.392,0-2.528-1.036-2.708-2.38L737.64,8.01z
	 M737.629,26.456h0.048c0.139,1.391,1.299,2.48,2.727,2.48c1.426,0,2.584-1.089,2.721-2.48h0.062
	c0.139,1.391,1.299,2.478,2.725,2.478c1.426,0.002,2.587-1.086,2.728-2.478h0.031c0.142,1.391,1.302,2.478,2.728,2.478
	c0.237,0,0.466-0.041,0.687-0.098v5.605c0,0.643-0.323,1.175-0.719,1.175H728.14c-0.401,0-0.725-0.533-0.725-1.175v-6.386
	c0.499,0.535,1.201,0.878,1.99,0.878c1.423,0,2.587-1.086,2.725-2.478h0.051c0.139,1.391,1.297,2.478,2.726,2.478
	C736.329,28.936,737.489,27.847,737.629,26.456z M730.234,9.121c0.226-0.57,0.967-1.123,1.688-1.123l2.322,0.004
	c0,0-2.965,13.535-2.973,13.535c-0.194,1.334-1.325,2.359-2.709,2.359c-1.459,0-2.652-1.137-2.741-2.58L730.234,9.121z
	 M707.114,63.125l4.065,0.008l0.578,13.476c-0.176,1.355-1.315,2.401-2.714,2.401c-1.39,0-2.526-1.036-2.708-2.38L707.114,63.125z
	 M695.296,76.431l4.412-12.195c0.226-0.571,0.967-1.123,1.688-1.123l2.321,0.004c0,0-2.963,13.535-2.973,13.535
	c-0.194,1.334-1.324,2.359-2.707,2.359C696.579,79.011,695.385,77.874,695.296,76.431z M721.555,89.556
	c0,0.643-0.32,1.175-0.718,1.175h-23.226c-0.4,0-0.725-0.533-0.725-1.175V83.17c0.499,0.536,1.201,0.878,1.991,0.878
	c1.421,0,2.585-1.086,2.725-2.477h0.052c0.138,1.391,1.295,2.477,2.725,2.477c1.424,0.003,2.585-1.086,2.725-2.477h0.047
	c0.138,1.391,1.299,2.48,2.725,2.48c1.428,0,2.584-1.089,2.723-2.48h0.062c0.138,1.391,1.298,2.477,2.723,2.477
	c1.426,0.003,2.588-1.086,2.729-2.477h0.033c0.14,1.391,1.3,2.477,2.727,2.477c0.238,0,0.465-0.041,0.685-0.097L721.555,89.556
	L721.555,89.556z M720.044,79.013c-1.408,0-2.553-1.057-2.72-2.422c0,0-0.008,0-0.011,0l-2.72-13.449l2.104,0.004
	c0.564,0,1.374,0.418,1.574,1.019l4.509,12.267C722.694,77.874,721.505,79.013,720.044,79.013z M753.184,66.862
	c-0.43,0.747-1.386,1.004-2.135,0.572c-0.077-0.045-0.127-0.115-0.193-0.172l-0.034,0.059l-6.845-3.952
	c-1.195,1.155-2.815,1.874-4.609,1.874c-1.807,0-3.442-0.729-4.637-1.902l-7.138,4.12l-0.008-0.014
	c-0.74,0.4-1.664,0.148-2.09-0.584c-0.423-0.735-0.178-1.661,0.537-2.104l-0.003-0.004l0.023-0.014
	c0.005-0.003,0.008-0.01,0.015-0.013c0.005-0.003,0.014-0.003,0.02-0.006l7.009-4.047c-0.216-0.655-0.36-1.343-0.36-2.07
	c0-3.118,2.156-5.715,5.053-6.426V44.04c0-0.864,0.699-1.562,1.562-1.562c0.863,0,1.564,0.698,1.564,1.562v8.128
	c2.916,0.699,5.089,3.306,5.089,6.437c0,0.741-0.149,1.442-0.373,2.108l6.755,3.899l-0.019,0.033
	c0.082,0.031,0.168,0.038,0.247,0.083C753.36,65.157,753.618,66.113,753.184,66.862z M756.815,76.431l4.411-12.195
	c0.227-0.571,0.968-1.123,1.688-1.123l2.322,0.004c0,0-2.964,13.535-2.974,13.535c-0.193,1.334-1.323,2.359-2.708,2.359
	C758.097,79.011,756.902,77.874,756.815,76.431z M783.073,89.556c0,0.643-0.323,1.175-0.718,1.175H759.13
	c-0.401,0-0.724-0.533-0.724-1.175V83.17c0.499,0.536,1.201,0.878,1.99,0.878c1.423,0,2.587-1.086,2.725-2.477h0.05
	c0.139,1.391,1.297,2.477,2.726,2.477c1.425,0.003,2.586-1.086,2.726-2.477h0.048c0.138,1.391,1.299,2.48,2.725,2.48
	c1.427,0,2.584-1.089,2.722-2.48h0.062c0.139,1.391,1.298,2.477,2.725,2.477c1.426,0.003,2.587-1.086,2.728-2.477h0.031
	c0.141,1.391,1.302,2.477,2.727,2.477c0.238,0,0.466-0.041,0.687-0.097L783.073,89.556L783.073,89.556z M781.562,79.013
	c-1.409,0-2.555-1.057-2.721-2.422c-0.003,0-0.008,0-0.011,0l-2.719-13.449l2.102,0.004c0.565,0,1.375,0.418,1.574,1.019
	l4.511,12.267C784.211,77.874,783.021,79.013,781.562,79.013z"/>
<g>
	<path fill="#E94458" d="M460.248,64.802h-6.571c-0.564,0-1.022,0.458-1.022,1.023v8.821c0,0.565,0.458,1.023,1.022,1.023h6.571
		c0.564,0,1.023-0.458,1.023-1.023v-8.821C461.271,65.26,460.812,64.802,460.248,64.802z"/>
	<path fill="#E94458" d="M460.248,49.488h-6.571c-0.564,0-1.022,0.458-1.022,1.023v8.821c0,0.565,0.458,1.022,1.022,1.022h6.571
		c0.564,0,1.023-0.458,1.023-1.022v-8.821C461.271,49.946,460.812,49.488,460.248,49.488z"/>
	<path fill="#E94458" d="M460.248,34.444h-6.571c-0.564,0-1.022,0.458-1.022,1.023v8.821c0,0.565,0.458,1.023,1.022,1.023h6.571
		c0.564,0,1.023-0.458,1.023-1.023v-8.821C461.271,34.901,460.812,34.444,460.248,34.444z"/>
	<path fill="#E94458" d="M473.14,64.802h-6.569c-0.565,0-1.023,0.458-1.023,1.023v8.821c0,0.565,0.458,1.023,1.023,1.023h6.569
		c0.565,0,1.023-0.458,1.023-1.023v-8.821C474.163,65.26,473.705,64.802,473.14,64.802z"/>
	<path fill="#E94458" d="M447.38,64.802h-6.57c-0.564,0-1.022,0.458-1.022,1.023v8.821c0,0.565,0.458,1.023,1.022,1.023h6.57
		c0.565,0,1.023-0.458,1.023-1.023v-8.821C448.403,65.26,447.945,64.802,447.38,64.802z"/>
	<path fill="#E94458" d="M447.38,49.488h-6.57c-0.564,0-1.022,0.458-1.022,1.023v8.821c0,0.565,0.458,1.022,1.022,1.022h6.57
		c0.565,0,1.023-0.458,1.023-1.022v-8.821C448.403,49.946,447.945,49.488,447.38,49.488z"/>
	<path fill="#E94458" d="M447.38,34.444h-6.57c-0.564,0-1.022,0.458-1.022,1.023v8.821c0,0.565,0.458,1.023,1.022,1.023h6.57
		c0.565,0,1.023-0.458,1.023-1.023v-8.821C448.403,34.901,447.945,34.444,447.38,34.444z M444.079,43.839
		c-1.091,0-1.977-0.883-1.977-1.977c0-1.088,0.886-1.976,1.977-1.976s1.976,0.888,1.976,1.976
		C446.054,42.956,445.169,43.839,444.079,43.839z"/>
	<path fill="#E94458" d="M473.14,34.444h-6.569c-0.565,0-1.023,0.458-1.023,1.023v8.821c0,0.565,0.458,1.023,1.023,1.023h6.569
		c0.565,0,1.023-0.458,1.023-1.023v-8.821C474.163,34.901,473.705,34.444,473.14,34.444z"/>
	<path fill="#E94458" d="M473.14,49.488h-6.569c-0.565,0-1.023,0.458-1.023,1.023v8.821c0,0.565,0.458,1.022,1.023,1.022h6.569
		c0.565,0,1.023-0.458,1.023-1.022v-8.821C474.163,49.946,473.705,49.488,473.14,49.488z M469.855,58.883
		c-1.09,0-1.977-0.883-1.977-1.976c0-1.089,0.886-1.976,1.977-1.976c1.09,0,1.976,0.886,1.976,1.976
		C471.831,58,470.946,58.883,469.855,58.883z"/>
	<path fill="#E94458" d="M524,58c0-32.03-25.967-58-57.999-58C433.967,0,408,25.969,408,58c0,15.046,5.731,28.753,15.125,39.06
		h0.061l11.777,0.001c1.307,0,2.366,1.058,2.366,2.366c0,1.306-1.057,2.366-2.366,2.366h-6.944h-0.024
		c0.824,0.716,1.677,1.401,2.542,2.072c0.073,0.056,0.148,0.112,0.224,0.169c0.703,0.541,1.42,1.064,2.149,1.572
		c0.127,0.089,0.255,0.178,0.383,0.265c0.738,0.506,1.486,0.996,2.249,1.468c0.079,0.048,0.156,0.1,0.235,0.148
		c1.71,1.048,3.479,2.009,5.299,2.88c0.131,0.062,0.264,0.12,0.395,0.182c0.754,0.352,1.517,0.689,2.287,1.01
		c0.213,0.089,0.427,0.175,0.642,0.262c0.724,0.292,1.456,0.568,2.194,0.831c0.207,0.073,0.415,0.149,0.623,0.221
		c0.872,0.299,1.753,0.581,2.645,0.838c0.059,0.017,0.117,0.037,0.177,0.055c0.989,0.282,1.987,0.54,2.996,0.77
		c0.104,0.024,0.211,0.043,0.315,0.066c0.858,0.192,1.723,0.364,2.595,0.516c0.271,0.048,0.545,0.089,0.817,0.134
		c0.724,0.115,1.45,0.218,2.183,0.307c0.309,0.038,0.616,0.075,0.927,0.107c0.739,0.079,1.481,0.14,2.229,0.189
		c0.28,0.02,0.561,0.043,0.842,0.059c1.015,0.052,2.032,0.086,3.061,0.086c0.004,0,0.007,0,0.011,0s0.007,0,0.01,0
		c0.032,0,0.063-0.003,0.097-0.003c0.978-0.001,1.949-0.032,2.914-0.082c0.371-0.019,0.735-0.051,1.104-0.076
		c0.628-0.045,1.255-0.094,1.879-0.159c0.428-0.044,0.853-0.095,1.277-0.148c0.555-0.069,1.107-0.148,1.659-0.234
		c0.448-0.069,0.896-0.138,1.341-0.219c0.521-0.093,1.039-0.201,1.554-0.309c0.451-0.093,0.905-0.179,1.353-0.283
		c0.854-0.198,1.699-0.417,2.538-0.652c0.561-0.158,1.114-0.336,1.668-0.511c0.344-0.108,0.688-0.211,1.027-0.326
		c0.572-0.191,1.138-0.397,1.701-0.606c0.301-0.111,0.603-0.224,0.9-0.341c0.59-0.23,1.175-0.468,1.756-0.716
		c0.225-0.096,0.448-0.197,0.67-0.296c2.922-1.295,5.715-2.822,8.36-4.561c0.069-0.048,0.144-0.093,0.214-0.141
		c0.648-0.431,1.288-0.875,1.917-1.332c0.069-0.051,0.14-0.102,0.208-0.152c1.319-0.964,2.587-1.994,3.818-3.062h-6.648
		c-1.31-0.001-2.366-1.06-2.366-2.366c0-1.308,1.057-2.364,2.366-2.366v-0.001l11.543,0.001c0.292-0.32,0.568-0.652,0.853-0.978
		c0.202-0.232,0.416-0.455,0.615-0.69h-0.014C518.854,85.294,524,72.25,524,58z M478.125,101.792H454.17
		c-1.308,0-2.364-1.06-2.364-2.366c0-1.308,1.058-2.366,2.364-2.366v-0.001l23.955,0.001c1.305,0,2.364,1.058,2.364,2.366
		C480.49,100.732,479.433,101.792,478.125,101.792z M484.794,28.597c-0.126,0.682-0.723,1.177-1.417,1.177h-2.184v52.25
		c0,0.577-0.458,1.044-1.023,1.044h-46.052c-0.565,0-1.023-0.468-1.023-1.044v-52.25h-2.065c-0.693,0-1.289-0.493-1.417-1.175
		c-0.13-0.682,0.245-1.358,0.891-1.61l26.056-10.213c0.169-0.066,0.349-0.1,0.527-0.1c0.178,0,0.355,0.032,0.523,0.099L483.9,26.987
		C484.546,27.238,484.923,27.914,484.794,28.597z M504.223,66.565v13.788c0,1.044-0.845,1.895-1.895,1.895
		c-1.046,0-1.894-0.851-1.894-1.895V66.565c-4.652-0.886-8.174-4.971-8.174-9.886c0-5.561,4.509-10.069,10.067-10.069
		c5.562,0,10.068,4.509,10.068,10.069C512.396,61.594,508.877,65.679,504.223,66.565z"/>
</g>
<path fill="#DC7931" d="M875.002,0C842.967,0,817,25.967,817,57.998C817,90.031,842.967,116,875.002,116
	C907.033,116,933,90.031,933,57.998C933,25.967,907.033,0,875.002,0z M909.871,47.032l-34.939,59.772
	c-0.1,0.169-0.278,0.268-0.469,0.268c-0.045,0-0.093-0.006-0.141-0.019c-0.233-0.063-0.397-0.276-0.4-0.521l-0.132-35.256h-33.193
	c-0.193,0-0.372-0.103-0.471-0.271c-0.096-0.167-0.096-0.373,0-0.541l35.377-61.267c0.121-0.211,0.372-0.316,0.609-0.252
	c0.235,0.063,0.398,0.278,0.398,0.522l0.037,36.625l32.854,0.125c0.193,0.001,0.371,0.104,0.468,0.273
	C909.97,46.659,909.967,46.865,909.871,47.032z"/>
<g>
	<path fill="#E46B48" d="M330,0c-32.032,0-58,25.966-58,57.997c0,12.073,3.692,23.284,10.003,32.566l26.128-26.13v-45
		c0-0.566,0.459-1.022,1.024-1.022h43.136l14.115,14.116v59.882c0,0.567-0.458,1.026-1.023,1.026h-56.228
		c-0.565,0-1.024-0.459-1.024-1.026v-5.704l12.287-12.287l-6.926-6.93l-27.853,27.86C296.28,107.971,312.199,116,330,116
		c32.032,0,58-25.969,58-58.003C388,25.966,362.032,0,330,0z"/>
	<path fill="#E46B48" d="M327.499,53.482L327.499,53.482l-7.373,7.375l6.927,6.927l7.368-7.37c0.002,0,0.005-0.003,0.007-0.005
		c1.911-1.911,1.911-5.017,0-6.927c-1.916-1.916-5.015-1.919-6.927,0H327.499z"/>
	<polygon fill="#E46B48" points="350.057,35.914 363.381,35.914 350.057,21.838 	"/>
	<path fill="#E46B48" d="M331.031,46.967c1.381,0,2.499-1.116,2.499-2.494l0.001-3.17h-0.001c0-1.381-1.12-2.5-2.499-2.5
		c-1.382,0-2.5,1.119-2.497,2.5v3.17C328.535,45.854,329.653,46.967,331.031,46.967z"/>
	<path fill="#E46B48" d="M340.938,56.873c0,1.384,1.119,2.5,2.5,2.497h3.169c1.381,0,2.497-1.116,2.497-2.497
		c-0.001-1.381-1.119-2.5-2.497-2.5h-3.169C342.059,54.373,340.938,55.492,340.938,56.873z"/>
	<path fill="#E46B48" d="M340.292,44.081l-2.241,2.238c-0.975,0.978-0.975,2.562-0.001,3.534c0.978,0.978,2.559,0.978,3.534,0
		l2.24-2.24c0.978-0.975,0.975-2.556,0-3.531C342.846,43.104,341.267,43.104,340.292,44.081z"/>
</g>
<rect x="1771.177" fill="none" width="115.769" height="116"/>
<path fill="#F26E3F" d="M1837.77,94.555h-18.161c-1.175,0-2.127,0.967-2.127,2.162c0,1.193,0.952,2.159,2.127,2.159h18.161
	c1.175,0,2.13-0.966,2.13-2.159C1839.898,95.521,1838.943,94.555,1837.77,94.555z"/>
<path fill="#F26E3F" d="M1836.303,102.91h-15.227c-1.178,0-2.13,0.966-2.13,2.16c0,1.193,0.952,2.162,2.13,2.162h2.704
	c0.738,2.11,2.704,3.631,5.038,3.631c2.33,0,4.298-1.521,5.037-3.631h2.446c1.175,0,2.128-0.969,2.128-2.162
	C1838.431,103.876,1837.479,102.91,1836.303,102.91z"/>
<path fill="#FFDC01" d="M1792.708,55.599L1792.708,55.599l-18.825,0.001c-0.738-0.001-1.477,0.277-2.042,0.842
	c-1.121,1.125-1.121,2.946,0,4.074c0.568,0.567,1.312,0.846,2.052,0.84l18.815,0.003l0,0c0.734,0,1.471-0.282,2.029-0.843
	c1.122-1.125,1.124-2.949,0-4.072C1794.179,55.881,1793.442,55.599,1792.708,55.599z"/>
<path fill="#FFDC01" d="M1792.649,17.686c-0.114-0.184-0.246-0.362-0.405-0.522c-1.123-1.125-2.941-1.122-4.062-0.001
	c-1.125,1.126-1.125,2.948,0,4.075c0.011,0.01,0.021,0.015,0.031,0.024l-0.06,0.061l13.122,13.151c1.123,1.126,2.939,1.124,4.063,0
	c1.122-1.126,1.123-2.947,0-4.072L1792.649,17.686z"/>
<path fill="#FFDC01" d="M1828.819,24.697c1.585-0.001,2.873-1.29,2.873-2.88V3.291h-0.005c0.009-0.749-0.267-1.499-0.838-2.071
	c-1.124-1.125-2.942-1.122-4.063-0.001c-0.57,0.573-0.847,1.323-0.838,2.072h-0.002l-0.001,18.527
	C1825.945,23.408,1827.23,24.697,1828.819,24.697z"/>
<path fill="#FFDC01" d="M1871.183,21.34c0.002-0.003,0.005-0.005,0.005-0.005c1.123-1.126,1.123-2.949,0.004-4.074
	c-1.125-1.125-2.943-1.124-4.064,0c-0.139,0.138-0.261,0.29-0.365,0.447l-13.144,13.17c-1.123,1.123-1.123,2.944,0,4.071
	c1.124,1.123,2.939,1.125,4.062,0l13.544-13.57L1871.183,21.34z"/>
<path fill="#FFDC01" d="M1886.158,56.444c-0.562-0.563-1.298-0.845-2.034-0.845h-18.849l0,0c-0.733,0-1.471,0.282-2.03,0.843
	c-1.124,1.125-1.123,2.946,0,4.074c0.561,0.562,1.297,0.843,2.03,0.843l18.825-0.003c0.745,0.006,1.49-0.273,2.058-0.84
	C1887.279,59.392,1887.281,57.567,1886.158,56.444z"/>
<path fill="#FFDC01" d="M1829.002,35.672c-12.57,0-22.762,10.211-22.762,22.807c0,5.912,2.267,11.284,5.951,15.335v0.149
	c3.494,4.01,5.629,9.243,5.629,14.986c0,0.525-0.044,1.039-0.079,1.554h22.418c-0.036-0.515-0.08-1.029-0.08-1.554
	c0-6.008,2.338-11.456,6.125-15.529v-0.037c3.455-4,5.558-9.202,5.558-14.904C1851.762,45.884,1841.574,35.672,1829.002,35.672z"/>
<g>
	<path fill="#7ED321" d="M1965,90.191c-1.352,0-2.445,1.094-2.445,2.444v7.797c0,1.352,1.095,2.446,2.445,2.446
		s2.446-1.094,2.446-2.446v-7.797C1967.446,91.286,1966.352,90.191,1965,90.191z"/>
	<path fill="#7ED321" d="M1954.86,90.191c-1.352,0-2.446,1.094-2.446,2.444v7.797c0,1.352,1.096,2.446,2.446,2.446
		c1.352,0,2.445-1.094,2.445-2.446v-7.797C1957.307,91.286,1956.212,90.191,1954.86,90.191z"/>
	<path fill="#7ED321" d="M1975.014,90.191c-1.352,0-2.444,1.094-2.444,2.444v7.797c0,1.352,1.094,2.446,2.444,2.446
		c1.352,0,2.445-1.094,2.445-2.446v-7.797C1977.459,91.286,1976.365,90.191,1975.014,90.191z"/>
	<path fill="#7ED321" d="M1984.137,43.318c-0.287-0.555-0.729-1.312-1.171-2.061c-0.405-0.686-0.806-1.368-1.093-1.912
		c-1.137-1.837-2.432-3.783-3.799-5.841c-4.894-7.356-10.438-15.694-9.351-20.225c0.06-0.243-0.045-0.496-0.259-0.626
		c-0.212-0.131-0.487-0.109-0.677,0.054c-8.232,7.056-21.478,26.385-24.265,37.248c-0.184,0.721-0.446,2.091-0.491,2.66
		l-0.043,0.248c-0.076,0.439-0.15,0.879-0.196,1.33c-0.312,3.12,0.028,6.221,1.02,9.219c2.763,8.358,10.192,14.328,18.932,15.208
		c0.752,0.077,1.514,0.115,2.266,0.115h0.002c11.479,0,21.002-8.626,22.156-20.063C1987.72,53.189,1986.785,48.455,1984.137,43.318z
		 M1975.803,65.58c-0.04,0.334-0.091,0.665-0.174,1.048c-0.26,1.176-0.717,2.302-1.354,3.341c-0.002,0.003-0.104,0.171-0.106,0.174
		c-0.112,0.178-0.233,0.352-0.353,0.521l-0.152,0.2c-0.387,0.511-0.823,0.994-1.297,1.434c-0.086,0.08-0.171,0.159-0.268,0.241
		c-0.131,0.116-0.267,0.227-0.396,0.33c-0.114,0.088-0.229,0.173-0.414,0.306c-0.104,0.079-0.209,0.155-0.322,0.229
		c-0.229,0.153-0.465,0.296-0.709,0.432c-0.084,0.047-0.169,0.09-0.352,0.183c-0.168,0.085-0.337,0.168-0.51,0.245
		c-0.119,0.054-0.234,0.104-0.357,0.153c-0.217,0.09-0.441,0.169-0.66,0.243c-0.004,0.002-0.106,0.037-0.11,0.038l-0.117,0.041
		c-0.296,0.092-0.602,0.166-0.897,0.231l-0.306,0.057c-0.233,0.045-0.468,0.081-0.713,0.108l-0.298,0.034
		c-0.649,0.061-1.339,0.061-2.001,0.001l-0.308-0.035c-0.237-0.027-0.473-0.063-0.729-0.113l-0.271-0.049
		c-0.307-0.068-0.61-0.142-0.909-0.235l-0.223-0.075c-0.222-0.077-0.446-0.156-0.667-0.246c-0.119-0.049-0.235-0.1-0.355-0.153
		c-0.172-0.077-0.34-0.16-0.582-0.283c-0.094-0.046-0.188-0.093-0.28-0.145c-0.24-0.135-0.478-0.278-0.711-0.434
		c-0.107-0.071-0.212-0.149-0.384-0.274c-0.116-0.084-0.231-0.17-0.342-0.255c-0.137-0.108-0.271-0.219-0.408-0.339
		c-0.09-0.077-0.176-0.156-0.26-0.234c-0.475-0.441-0.91-0.924-1.35-1.502l-0.101-0.133c-0.12-0.169-0.239-0.342-0.352-0.521
		c-0.003-0.004-0.104-0.165-0.105-0.168c-0.64-1.047-1.096-2.172-1.368-3.409c-0.07-0.322-0.121-0.652-0.161-0.986l-0.024-0.152
		c-0.039-0.382-0.062-0.771-0.062-1.162c0-0.282,0.021-0.561,0.043-0.878c0.002-0.289,0.056-0.916,0.107-1.266
		c0.75-4.951,6.819-14.744,10.803-19.552c3.982,4.809,10.054,14.601,10.804,19.551c0.053,0.351,0.104,0.979,0.108,1.308
		c0.021,0.277,0.041,0.556,0.041,0.838c0,0.392-0.022,0.78-0.062,1.162l0.571,0.059L1975.803,65.58z"/>
</g>
<rect x="1907" fill="none" width="116" height="116"/>
<g>
	<path fill="#EA9E31" d="M83.559,5.931C75.847,2.138,67.174,0,58,0C42.031,0,27.57,6.457,17.082,16.898l45.001,20.461L83.559,5.931z
		"/>
	<path fill="#EA9E31" d="M88.216,8.487l-4.01,38.93l3.071,1.395c1.288-1.917,3.433-3.083,5.744-3.083
		c3.379,0,6.239,2.443,6.82,5.748l4.917,2.219c0.27,0.121,0.437,0.393,0.426,0.688c-0.013,0.295-0.203,0.553-0.482,0.65
		l-6.392,2.262c-1.268,13.3-14.687,24.464-29.52,24.466c-0.001,0-0.001,0-0.001,0c-1.47,0-2.942-0.111-4.381-0.333l-26.823,21.918
		c-0.13,0.104-0.29,0.162-0.457,0.162c-0.031,0-0.062-0.001-0.092-0.005c-0.197-0.025-0.375-0.131-0.492-0.292L20.713,81.505
		c-0.146-0.2-0.178-0.459-0.087-0.69s0.296-0.397,0.538-0.442l29.031-5.415c-0.211-0.175-0.421-0.354-0.63-0.537
		C36.453,62.968,24.843,45.918,13.276,21.07C4.982,31.103,0,43.968,0,58c0,32.034,25.968,58,58,58c32.034,0,58-25.967,58-58
		C116,37.038,104.878,18.677,88.216,8.487z"/>
</g>
<path fill="#F26E3F" d="M1686.477,91.163h-6.32c-3.803,3.84-8.678,6.147-13.996,6.147c-5.315,0-10.191-2.307-13.989-6.147h-6.999
	c-5.745,0-10.4,7.871-10.4,17.582c0,0.311,0.002,0.616,0.013,0.919h62.083c0.015-0.303,0.016-0.608,0.016-0.919
	C1696.881,99.034,1692.223,91.163,1686.477,91.163z"/>
<path fill="#F26E3F" d="M1666.159,92.379c9.907,0,17.935-9.803,17.935-21.904c0-12.093-8.026-21.902-17.935-21.902
	c-9.901,0-17.925,9.809-17.925,21.902C1648.234,82.576,1656.258,92.379,1666.159,92.379z M1676.41,75.973
	c0,5.421-4.397,9.815-9.816,9.815c-5.422,0-9.817-4.394-9.817-9.815H1676.41z"/>
<path fill="#FFDC01" d="M1747.842,23.808h-0.045c-0.697-8.2-7.519-14.526-15.818-14.526h-29.783
	c-8.303,0-15.126,6.327-15.825,14.526h-0.169V34.75l0.092,0.721h0.018c0.301,6.667,4.768,12.457,11.146,14.444l-4.426,19.641
	l31.421-18.905h7.526c8.766,0,15.896-7.132,15.896-15.901V24.528L1747.842,23.808z M1741.448,35.402
	c-0.316,4.989-4.479,8.898-9.475,8.898h-9.641l-19.822,11.697l2.638-11.697h-2.955c-4.996,0-9.158-3.909-9.477-8.898l-0.029-0.278
	v-9.902c0-5.239,4.264-9.501,9.506-9.501h29.78c5.24,0,9.505,4.262,9.505,9.501l0.006,9.603L1741.448,35.402z"/>
<rect x="1634" fill="none" width="116" height="116"/>
<path fill="#F26E3F" d="M1556.931,14.462c-23.114,0-41.854,18.739-41.854,41.853c0,23.114,18.739,41.855,41.854,41.855
	c23.112,0,41.854-18.742,41.854-41.855S1580.043,14.462,1556.931,14.462z M1556.931,91.048c-19.186,0-34.733-15.549-34.733-34.733
	c0-19.181,15.549-34.732,34.733-34.732c19.186,0,34.734,15.552,34.734,34.732C1591.665,75.499,1576.115,91.048,1556.931,91.048z"/>
<polygon fill="#FFDC01" points="1541.429,60.128 1533.015,45.349 1528.373,45.349 1528.373,66.544 1532.499,66.544 1532.499,51.506 
	1541.128,66.544 1545.557,66.544 1545.557,45.349 1541.429,45.349 "/>
<path fill="#FFDC01" d="M1560.062,45.75h-9.07v21.125h4.385V59.28h4.398c2.295,0,4.062-0.517,5.298-1.549
	c1.237-1.03,1.854-2.794,1.854-5.287c0-2.283-0.621-3.97-1.863-5.059C1563.821,46.294,1562.153,45.75,1560.062,45.75z
	 M1561.704,54.879c-0.56,0.506-1.344,0.76-2.351,0.76h-3.979v-6.22h3.979c1.007,0,1.791,0.235,2.351,0.702
	c0.559,0.469,0.839,1.253,0.839,2.351C1562.543,53.571,1562.263,54.374,1561.704,54.879z"/>
<path fill="#FFDC01" d="M1584.722,56.387c-0.81-0.639-2.024-1.15-3.647-1.531l-3.703-0.873c-1.43-0.335-2.365-0.626-2.805-0.873
	c-0.685-0.373-1.027-0.936-1.027-1.691c0-0.82,0.349-1.459,1.043-1.918c0.692-0.458,1.623-0.687,2.784-0.687
	c1.049,0,1.926,0.176,2.631,0.529c1.056,0.535,1.623,1.438,1.702,2.707l4.238-0.001c-0.076-2.242-0.91-3.953-2.5-5.132
	c-1.592-1.178-3.512-1.768-5.763-1.768c-2.696,0-4.738,0.626-6.13,1.876c-1.393,1.25-2.087,2.819-2.087,4.71
	c0,2.071,0.71,3.594,2.132,4.566c0.841,0.583,2.383,1.122,4.63,1.619l2.284,0.501c1.336,0.287,2.314,0.617,2.931,0.987
	c0.614,0.383,0.923,0.922,0.923,1.619c0,1.192-0.626,2.01-1.885,2.449c-0.662,0.229-1.527,0.342-2.591,0.342
	c-1.771,0-3.022-0.434-3.754-1.302c-0.399-0.479-0.669-1.198-0.806-2.162h-4.208c0,2.195,0.793,3.92,2.389,5.176
	c1.589,1.255,3.775,1.882,6.554,1.882c2.722,0,4.825-0.638,6.317-1.912c1.491-1.274,2.235-2.876,2.235-4.803
	C1586.609,58.816,1585.979,57.379,1584.722,56.387z"/>
<rect x="1498" fill="none" width="116" height="116"/>
<path fill="#DC7931" d="M202.938,186.78c-1.053,0-1.908-0.854-1.908-1.909c0-1.055,0.855-1.91,1.908-1.91c0.001,0,0.001,0,0.001,0
	h17.056c-0.465-9.807-4.3-18.728-10.366-25.647l-11.464,11.456l-0.001,0.002c-0.745,0.744-1.955,0.744-2.701-0.002
	c-0.747-0.746-0.747-1.954-0.001-2.699h0.001h-0.001l11.521-11.513c-7.232-6.883-16.911-11.214-27.604-11.558v15.974l0,0
	c0,1.053-0.854,1.907-1.909,1.907c-1.055,0-1.911-0.854-1.911-1.907l0,0v-15.932c-10.128,0.581-19.289,4.743-26.248,11.238
	l11.345,11.338c0.001,0,0.001,0.001,0.003,0.002c0.745,0.745,0.745,1.954-0.002,2.699c-0.746,0.745-1.956,0.745-2.701,0.001v-0.001
	l-11.319-11.311c-6.221,6.962-10.159,16.002-10.631,25.954h17.055h0.001c1.053,0,1.909,0.855,1.909,1.91
	c0,1.055-0.856,1.909-1.909,1.909h-0.001H136c0.943,22.371,19.381,40.22,42.001,40.22c22.618,0,41.056-17.849,41.999-40.22
	L202.938,186.78C202.939,186.78,202.939,186.78,202.938,186.78z M182.266,211.7h-1.428c-0.432,1.214-1.579,2.086-2.939,2.086
	c-1.361,0-2.508-0.873-2.94-2.086h-1.579c-0.687,0-1.242-0.556-1.242-1.242c0-0.683,0.556-1.24,1.242-1.24h8.886
	c0.687,0,1.242,0.557,1.242,1.24C183.508,211.144,182.952,211.7,182.266,211.7z M183.121,207.003h-10.597
	c-0.685,0-1.241-0.557-1.241-1.241c0-0.686,0.557-1.241,1.241-1.241h10.597c0.687,0,1.243,0.555,1.243,1.241
	C184.363,206.447,183.807,207.003,183.121,207.003z M188.044,192.255v0.022c-2.21,2.371-3.573,5.542-3.573,9.038
	c0,0.305,0.024,0.605,0.045,0.905h-13.035v-0.905v-0.73h-0.037c-0.167-3.054-1.358-5.829-3.25-7.991v-0.086
	c-2.15-2.358-3.472-5.484-3.472-8.926c0-7.331,5.947-13.272,13.281-13.272c7.336,0,13.282,5.942,13.282,13.272
	C191.287,186.9,190.06,189.928,188.044,192.255z"/>
<g>
	<path fill="#EA9E31" d="M988.026,161.271c-9.277,0-16.798,7.518-16.798,16.795c0,9.276,7.521,16.797,16.798,16.797
		c9.274,0,16.797-7.521,16.797-16.797C1004.823,168.789,997.301,161.271,988.026,161.271z M988.64,188.793
		c-5.017,0.009-8.324-3.037-9.78-6.562c-1.111,0-2.224,0-3.335,0c0-0.925,0-1.852,0-2.777c0.889,0,1.775,0,2.666,0
		c-0.092-0.941-0.146-1.747,0-2.669c-0.665-0.258-1.812-0.039-2.666-0.111c0-0.927,0-1.854,0-2.778c1.112,0,2.225,0,3.335,0
		c1.487-3.221,4.531-6.172,9.227-6.339c3.208-0.113,5.896,1.025,7.896,2.67c-0.34,0.847-0.998,1.375-1.336,2.223
		c-2.97-3.153-10.872-2.81-12.45,1.335c2.183,0.258,4.852,0.035,7.226,0.111c0,0.924,0,1.851,0,2.778c-2.703,0-5.41,0-8.117,0
		c-0.357,0.727-0.189,1.882-0.108,2.781c2.743,0,5.484,0,8.227,0c0,0.925,0,1.853,0,2.777c-2.374,0-4.743,0-7.116,0
		c0.824,2.083,3.255,3.834,6.225,3.893c2.778,0.053,4.926-1.406,6.561-2.667c0.389,0.758,0.953,1.343,1.448,1.999
		C994.653,187.375,991.95,188.784,988.64,188.793z"/>
	<path fill="#EA9E31" d="M1026.327,211.81c6.039-7.274,9.673-16.618,9.673-26.811c0-23.195-18.805-41.999-42.001-41.999
		C970.804,143,952,161.804,952,184.999C952,208.195,970.804,227,993.999,227c10.593,0,20.263-3.931,27.651-10.401l-21.081-21.082
		c-3.501,2.51-7.78,4.003-12.414,4.003c-11.795,0-21.354-9.56-21.354-21.352s9.559-21.348,21.354-21.348
		c11.789,0,21.349,9.557,21.349,21.348c0,4.739-1.562,9.104-4.176,12.645L1026.327,211.81z"/>
</g>
<g>
	<path fill="#E46B48" d="M1136.123,188.35c-0.002,0-0.007,0-0.01,0h-9.221c-0.004,0-0.008,0-0.011,0
		c-0.866,0-1.569,0.703-1.569,1.571c0,0.87,0.703,1.573,1.569,1.573h0.001v0.001h9.239v-0.001c0.867,0,1.569-0.704,1.569-1.571
		C1137.692,189.053,1136.99,188.35,1136.123,188.35z"/>
	<path fill="#E46B48" d="M1135.406,143.096c0.965,0.981,1.563,2.327,1.563,3.814c0,3.004-2.43,5.439-5.429,5.439
		c-3.001,0-5.433-2.436-5.433-5.439c0-1.539,0.645-2.921,1.67-3.91c-21.689,1.649-38.779,19.786-38.779,41.933
		c0,23.232,18.805,42.067,42,42.067c23.196,0,42-18.835,42-42.067C1173,163.19,1156.531,145.302,1135.406,143.096z
		 M1131.542,162.182c2.999,0,5.429,2.436,5.429,5.439c0,3.004-2.43,5.44-5.429,5.44c-3.001,0-5.433-2.436-5.433-5.44
		C1126.109,164.618,1128.541,162.182,1131.542,162.182z M1150.191,202.603c-0.164,0-0.321-0.026-0.479-0.048
		c-1.577,3.489-4.217,6.234-7.531,8.061c0.274,0.482,0.442,1.034,0.442,1.629c0,1.842-1.49,2.12-3.33,2.12
		c-1.636,0-2.989-0.228-3.269-1.575c-1.359,0.252-2.768,0.396-4.216,0.396c-1.416,0-2.82-0.17-4.195-0.458
		c-0.253,1.397-1.617,1.636-3.276,1.636c-1.838,0-3.33-0.278-3.33-2.12c0-0.654,0.195-1.258,0.521-1.772
		c-4.763-2.639-8.167-6.913-8.167-11.535c0-0.91,0.097-1.765,0.234-2.596c-0.811-0.62-1.718-0.878-2.601-0.584
		c-0.044-0.039-0.058-0.098-0.042-0.17c0.075-0.163,0.141-0.283,0.282-0.48c0.817-1.135,2.002-1.753,3.228-1.845
		c2.687-6.487,9.948-9.805,17.347-9.805c4.676,0,8.967,1.647,12.327,4.392c0.558-0.369,1.188-0.63,1.865-0.744
		c2.553-0.434,4.799,1.347,5.017,3.973c0.019,0.244,0.014,0.38-0.009,0.555c-0.022,0.07-0.064,0.116-0.121,0.127
		c-0.655-0.77-1.677-1.003-2.797-0.813c-0.054,0.009-0.112,0.021-0.166,0.033c-0.201,0.045-0.395,0.114-0.583,0.193
		c1.103,1.448,2,3.056,2.667,4.78c0.062-0.003,0.119-0.019,0.183-0.019c1.839,0,2.116,1.492,2.116,3.334
		C1152.308,201.109,1152.03,202.603,1150.191,202.603z"/>
</g>
<g>
	<path fill="#E94458" d="M1280.208,187.939h-3.612c-0.422,0-0.768,0.261-0.768,0.585v5.324c0,0.323,0.346,0.585,0.768,0.585h3.612
		c0.424,0,0.771-0.262,0.771-0.585v-5.324C1280.979,188.2,1280.632,187.939,1280.208,187.939z"/>
	<path fill="#E94458" d="M1272.508,187.939h-3.61c-0.426,0-0.769,0.261-0.769,0.585v5.324c0,0.323,0.344,0.585,0.769,0.585h3.61
		c0.426,0,0.769-0.262,0.769-0.585v-5.324C1273.275,188.2,1272.933,187.939,1272.508,187.939z"/>
	<path fill="#E94458" d="M1287.905,187.939h-3.612c-0.422,0-0.768,0.261-0.768,0.585v5.324c0,0.323,0.346,0.585,0.768,0.585h3.612
		c0.425,0,0.77-0.262,0.77-0.585v-5.324C1288.675,188.2,1288.33,187.939,1287.905,187.939z"/>
	<path fill="#E94458" d="M1264.812,187.939h-3.612c-0.424,0-0.77,0.261-0.77,0.585v5.324c0,0.323,0.345,0.585,0.77,0.585h3.612
		c0.423,0,0.768-0.262,0.768-0.585v-5.324C1265.58,188.2,1265.235,187.939,1264.812,187.939z"/>
	<path fill="#E94458" d="M1290.885,213.285L1290.885,213.285h8.161C1305.849,205.821,1310,195.896,1310,185
		c0-23.194-18.805-42-42-42c-23.196,0-42,18.805-42,42c0,10.896,4.148,20.822,10.953,28.285l8.769,0.001h0.002
		c0.944,0,1.712,0.766,1.712,1.713c0,0.943-0.766,1.712-1.712,1.712h-0.002h-5.245C1247.848,223.114,1257.468,227,1268,227
		c10.53,0,20.15-3.886,27.521-10.289h-4.638c-0.948-0.001-1.712-0.769-1.712-1.712
		C1289.173,214.051,1289.938,213.286,1290.885,213.285z M1241.873,190.611v11.248c0,0.755-0.614,1.37-1.372,1.37
		c-0.757,0-1.371-0.615-1.371-1.37v-11.248c-3.371-0.642-5.92-3.601-5.92-7.158c0-4.027,3.267-7.29,7.291-7.29
		c4.026,0,7.292,3.262,7.292,7.29C1247.793,187.01,1245.244,189.97,1241.873,190.611z M1276.979,216.711h-17.348
		c-0.946,0-1.712-0.769-1.712-1.712c0-0.947,0.766-1.713,1.712-1.713v-0.001l17.348,0.001c0.943,0,1.712,0.766,1.712,1.713
		C1278.689,215.942,1277.924,216.711,1276.979,216.711z M1270.176,203.135l-14.005,0.095l3.286-46.089h6.243l2.36,23.466h0.275
		l14.673-11.131c0.515-0.377,0.929-0.165,0.927,0.471l-0.041,8.972c-0.006,0.636,0.414,0.851,0.932,0.478l13.531-9.761
		c0.515-0.372,0.938-0.156,0.938,0.478v31.882c0,0.636-0.521,1.155-1.155,1.155L1270.176,203.135z"/>
	<path fill="#E94458" d="M1295.607,187.939h-3.612c-0.425,0-0.769,0.261-0.769,0.585v5.324c0,0.323,0.344,0.585,0.769,0.585h3.612
		c0.424,0,0.767-0.262,0.767-0.585v-5.324C1296.374,188.2,1296.031,187.939,1295.607,187.939z"/>
</g>
<path fill="#E46B48" d="M722.999,143C699.804,143,681,161.804,681,185s18.804,42,41.999,42C746.196,227,765,208.196,765,185
	S746.196,143,722.999,143z M744.458,188.711l2.945,0.006l0.417,9.758c-0.127,0.981-0.952,1.739-1.964,1.739
	c-1.008,0-1.831-0.75-1.962-1.723L744.458,188.711z M728.954,148.815c0.41,0,0.996,0.303,1.14,0.738l3.267,8.883
	c-0.063,1.045-0.925,1.87-1.981,1.87c-1.02,0-1.849-0.765-1.969-1.754c-0.002,0-0.006,0-0.009,0l-1.97-9.739L728.954,148.815z
	 M722.015,148.8l2.945,0.006l0.417,9.759c-0.127,0.981-0.952,1.739-1.964,1.739c-1.007,0-1.83-0.75-1.961-1.724L722.015,148.8z
	 M722.007,162.158h0.035c0.1,1.007,0.94,1.796,1.974,1.796c1.032,0,1.871-0.789,1.971-1.796h0.045
	c0.101,1.007,0.939,1.794,1.973,1.794c1.033,0.001,1.873-0.787,1.977-1.794H730c0.102,1.007,0.943,1.794,1.975,1.794
	c0.172,0,0.337-0.03,0.497-0.071v4.059c0,0.465-0.233,0.851-0.521,0.851h-16.817c-0.291,0-0.524-0.386-0.524-0.851v-4.624
	c0.36,0.387,0.869,0.636,1.44,0.636c1.031,0,1.874-0.787,1.974-1.794h0.036c0.101,1.007,0.938,1.794,1.974,1.794
	C721.065,163.954,721.906,163.165,722.007,162.158z M716.652,149.604c0.164-0.413,0.699-0.813,1.223-0.813l1.682,0.003
	c0,0-2.146,9.801-2.152,9.801c-0.142,0.966-0.959,1.708-1.961,1.708c-1.058,0-1.922-0.824-1.985-1.869L716.652,149.604z
	 M699.91,188.711l2.945,0.006l0.418,9.758c-0.127,0.981-0.953,1.739-1.966,1.739c-1.006,0-1.83-0.75-1.961-1.723L699.91,188.711z
	 M691.354,198.347l3.194-8.831c0.163-0.414,0.7-0.813,1.224-0.813l1.681,0.003c0,0-2.146,9.801-2.153,9.801
	c-0.141,0.966-0.959,1.708-1.96,1.708C692.281,200.215,691.417,199.392,691.354,198.347z M710.367,207.851
	c0,0.465-0.232,0.851-0.521,0.851h-16.818c-0.29,0-0.524-0.386-0.524-0.851v-4.624c0.361,0.388,0.87,0.636,1.442,0.636
	c1.028,0,1.873-0.787,1.974-1.794h0.037c0.1,1.007,0.938,1.794,1.973,1.794c1.032,0.002,1.873-0.787,1.975-1.794h0.033
	c0.101,1.007,0.941,1.796,1.974,1.796c1.034,0,1.872-0.789,1.972-1.796h0.044c0.101,1.007,0.94,1.794,1.973,1.794
	c1.032,0.002,1.875-0.787,1.975-1.794h0.022c0.103,1.007,0.942,1.794,1.976,1.794c0.172,0,0.337-0.03,0.496-0.071L710.367,207.851
	L710.367,207.851z M709.273,200.216c-1.021,0-1.85-0.766-1.971-1.754c0,0-0.006,0-0.008,0l-1.969-9.739l1.522,0.003
	c0.409,0,0.995,0.303,1.141,0.738l3.265,8.883C711.192,199.392,710.331,200.216,709.273,200.216z M733.271,191.417
	c-0.312,0.541-1.005,0.728-1.547,0.414c-0.056-0.033-0.092-0.083-0.141-0.125l-0.024,0.043l-4.956-2.862
	c-0.865,0.836-2.039,1.357-3.339,1.357c-1.308,0-2.492-0.528-3.357-1.377l-5.168,2.983l-0.006-0.01
	c-0.536,0.29-1.205,0.107-1.515-0.423c-0.306-0.532-0.128-1.203,0.39-1.523l-0.002-0.003l0.018-0.01
	c0.004-0.002,0.006-0.007,0.01-0.009s0.011-0.002,0.015-0.004l5.074-2.93c-0.155-0.474-0.261-0.973-0.261-1.499
	c0-2.258,1.562-4.138,3.659-4.653v-5.894c0-0.625,0.506-1.131,1.131-1.131c0.626,0,1.133,0.505,1.133,1.131v5.886
	c2.111,0.506,3.687,2.394,3.687,4.661c0,0.537-0.108,1.044-0.271,1.526l4.893,2.824l-0.015,0.023c0.061,0.022,0.122,0.028,0.18,0.06
	C733.398,190.183,733.585,190.875,733.271,191.417z M735.9,198.347l3.194-8.831c0.163-0.414,0.7-0.813,1.223-0.813l1.682,0.003
	c0,0-2.146,9.801-2.153,9.801c-0.141,0.966-0.959,1.708-1.961,1.708C736.829,200.215,735.964,199.392,735.9,198.347z
	 M754.915,207.851c0,0.465-0.234,0.851-0.521,0.851h-16.817c-0.291,0-0.524-0.386-0.524-0.851v-4.624
	c0.361,0.388,0.869,0.636,1.44,0.636c1.03,0,1.874-0.787,1.974-1.794h0.036c0.102,1.007,0.939,1.794,1.974,1.794
	c1.032,0.002,1.873-0.787,1.975-1.794h0.035c0.1,1.007,0.94,1.796,1.973,1.796c1.033,0,1.871-0.789,1.97-1.796h0.045
	c0.101,1.007,0.94,1.794,1.974,1.794c1.032,0.002,1.874-0.787,1.975-1.794h0.022c0.102,1.007,0.942,1.794,1.975,1.794
	c0.173,0,0.338-0.03,0.497-0.071V207.851L754.915,207.851z M753.821,200.216c-1.021,0-1.851-0.766-1.971-1.754
	c-0.002,0-0.006,0-0.008,0l-1.969-9.739l1.522,0.003c0.408,0,0.995,0.303,1.14,0.738l3.267,8.883
	C755.739,199.392,754.878,200.216,753.821,200.216z"/>
<g>
	<path fill="#E94458" d="M445.835,189.926h-4.758c-0.409,0-0.741,0.332-0.741,0.741v6.388c0,0.409,0.332,0.741,0.741,0.741h4.758
		c0.409,0,0.741-0.332,0.741-0.741v-6.388C446.576,190.257,446.244,189.926,445.835,189.926z"/>
	<path fill="#E94458" d="M445.835,178.836h-4.758c-0.409,0-0.741,0.332-0.741,0.741v6.388c0,0.409,0.332,0.74,0.741,0.74h4.758
		c0.409,0,0.741-0.331,0.741-0.74v-6.388C446.576,179.168,446.244,178.836,445.835,178.836z"/>
	<path fill="#E94458" d="M445.835,167.942h-4.758c-0.409,0-0.741,0.332-0.741,0.741v6.388c0,0.409,0.332,0.741,0.741,0.741h4.758
		c0.409,0,0.741-0.332,0.741-0.741v-6.388C446.576,168.273,446.244,167.942,445.835,167.942z"/>
	<path fill="#E94458" d="M455.17,189.926h-4.758c-0.409,0-0.741,0.332-0.741,0.741v6.388c0,0.409,0.332,0.741,0.741,0.741h4.758
		c0.41,0,0.741-0.332,0.741-0.741v-6.388C455.911,190.257,455.58,189.926,455.17,189.926z"/>
	<path fill="#E94458" d="M436.517,189.926h-4.758c-0.409,0-0.741,0.332-0.741,0.741v6.388c0,0.409,0.332,0.741,0.741,0.741h4.758
		c0.409,0,0.741-0.332,0.741-0.741v-6.388C437.258,190.257,436.926,189.926,436.517,189.926z"/>
	<path fill="#E94458" d="M436.517,178.836h-4.758c-0.409,0-0.741,0.332-0.741,0.741v6.388c0,0.409,0.332,0.74,0.741,0.74h4.758
		c0.409,0,0.741-0.331,0.741-0.74v-6.388C437.258,179.168,436.926,178.836,436.517,178.836z"/>
	<path fill="#E94458" d="M436.517,167.942h-4.758c-0.409,0-0.741,0.332-0.741,0.741v6.388c0,0.409,0.332,0.741,0.741,0.741h4.758
		c0.409,0,0.741-0.332,0.741-0.741v-6.388C437.258,168.273,436.926,167.942,436.517,167.942z M434.126,174.746
		c-0.79,0-1.431-0.64-1.431-1.432c0-0.788,0.641-1.431,1.431-1.431s1.431,0.643,1.431,1.431
		C435.557,174.106,434.916,174.746,434.126,174.746z"/>
	<path fill="#E94458" d="M455.17,167.942h-4.758c-0.409,0-0.741,0.332-0.741,0.741v6.388c0,0.409,0.332,0.741,0.741,0.741h4.758
		c0.41,0,0.741-0.332,0.741-0.741v-6.388C455.911,168.273,455.58,167.942,455.17,167.942z"/>
	<path fill="#E94458" d="M455.17,178.836h-4.758c-0.409,0-0.741,0.332-0.741,0.741v6.388c0,0.409,0.332,0.74,0.741,0.74h4.758
		c0.41,0,0.741-0.331,0.741-0.74v-6.388C455.911,179.168,455.58,178.836,455.17,178.836z M452.792,185.639
		c-0.789,0-1.431-0.64-1.431-1.431c0-0.789,0.642-1.43,1.431-1.43c0.79,0,1.431,0.642,1.431,1.43
		C454.223,185,453.582,185.639,452.792,185.639z"/>
	<path fill="#E94458" d="M492,185c0-23.194-18.804-42-41.999-42C426.804,143,408,161.805,408,185
		c0,10.896,4.15,20.822,10.953,28.285h0.044l8.528,0.001c0.945,0,1.713,0.766,1.713,1.713c0,0.946-0.767,1.713-1.713,1.713h-5.028
		h-0.02c0.598,0.519,1.215,1.015,1.842,1.5c0.053,0.041,0.107,0.081,0.163,0.122c0.509,0.392,1.027,0.771,1.556,1.139
		c0.092,0.064,0.185,0.128,0.278,0.192c0.534,0.366,1.075,0.721,1.628,1.063c0.057,0.035,0.112,0.073,0.17,0.107
		c1.239,0.759,2.52,1.455,3.837,2.086c0.095,0.044,0.19,0.086,0.286,0.131c0.546,0.255,1.098,0.499,1.655,0.731
		c0.154,0.064,0.31,0.126,0.465,0.19c0.523,0.211,1.055,0.411,1.59,0.602c0.149,0.053,0.3,0.108,0.451,0.16
		c0.631,0.216,1.27,0.42,1.914,0.607c0.043,0.012,0.086,0.026,0.128,0.04c0.716,0.204,1.438,0.391,2.169,0.557
		c0.075,0.017,0.152,0.031,0.229,0.048c0.622,0.139,1.247,0.263,1.879,0.373c0.197,0.035,0.396,0.064,0.592,0.098
		c0.524,0.083,1.051,0.158,1.58,0.222c0.224,0.028,0.447,0.054,0.671,0.078c0.535,0.057,1.074,0.101,1.615,0.137
		c0.203,0.014,0.405,0.031,0.609,0.043c0.734,0.038,1.473,0.062,2.216,0.062c0.003,0,0.005,0,0.008,0s0.005,0,0.007,0
		c0.023,0,0.046-0.002,0.069-0.002c0.708-0.001,1.412-0.023,2.11-0.059c0.268-0.014,0.532-0.037,0.8-0.055
		c0.455-0.033,0.909-0.068,1.36-0.115c0.31-0.032,0.617-0.069,0.925-0.107c0.401-0.05,0.802-0.107,1.2-0.169
		c0.324-0.05,0.649-0.1,0.973-0.158c0.377-0.067,0.752-0.146,1.125-0.224c0.327-0.067,0.655-0.129,0.979-0.205
		c0.618-0.144,1.23-0.302,1.837-0.472c0.406-0.114,0.808-0.244,1.208-0.37c0.249-0.079,0.499-0.153,0.745-0.236
		c0.414-0.139,0.823-0.288,1.231-0.439c0.218-0.081,0.436-0.162,0.651-0.247c0.428-0.167,0.852-0.339,1.271-0.519
		c0.163-0.069,0.324-0.143,0.485-0.214c2.115-0.938,4.139-2.043,6.054-3.303c0.051-0.035,0.104-0.067,0.155-0.102
		c0.47-0.312,0.932-0.634,1.388-0.964c0.051-0.037,0.101-0.074,0.15-0.11c0.956-0.698,1.874-1.444,2.766-2.217h-4.815
		c-0.947-0.001-1.713-0.767-1.713-1.713c0-0.947,0.766-1.712,1.713-1.713v-0.001l8.358,0.001c0.211-0.231,0.411-0.472,0.618-0.708
		c0.146-0.168,0.301-0.33,0.444-0.5h-0.01C488.273,204.765,492,195.319,492,185z M458.78,216.711h-17.348
		c-0.946,0-1.712-0.767-1.712-1.713c0-0.947,0.766-1.713,1.712-1.713v-0.001l17.348,0.001c0.944,0,1.712,0.766,1.712,1.713
		C460.493,215.944,459.728,216.711,458.78,216.711z M463.61,163.708c-0.093,0.494-0.523,0.852-1.026,0.852h-1.582v37.836
		c0,0.418-0.332,0.756-0.741,0.756h-33.348c-0.409,0-0.741-0.338-0.741-0.756V164.56h-1.496c-0.502,0-0.933-0.357-1.025-0.851
		c-0.095-0.494,0.178-0.984,0.645-1.166l18.868-7.396c0.122-0.048,0.252-0.072,0.381-0.072s0.257,0.023,0.379,0.071l19.039,7.396
		C463.43,162.724,463.703,163.214,463.61,163.708z M477.679,191.202v9.984c0,0.756-0.611,1.373-1.372,1.373
		c-0.757,0-1.371-0.617-1.371-1.373v-9.984c-3.368-0.642-5.919-3.6-5.919-7.159c0-4.026,3.267-7.292,7.29-7.292
		c4.027,0,7.292,3.265,7.292,7.292C483.598,187.603,481.049,190.561,477.679,191.202z"/>
</g>
<path fill="#DC7931" d="M859.001,143C835.804,143,817,161.804,817,184.998C817,208.195,835.804,227,859.001,227
	C882.196,227,901,208.195,901,184.998C901,161.804,882.196,143,859.001,143z M884.251,177.058l-25.301,43.284
	c-0.072,0.123-0.203,0.194-0.339,0.194c-0.033,0-0.067-0.004-0.103-0.014c-0.169-0.046-0.288-0.2-0.29-0.377l-0.095-25.531h-24.037
	c-0.141,0-0.27-0.074-0.341-0.196c-0.069-0.121-0.069-0.27,0-0.392l25.618-44.366c0.088-0.153,0.27-0.229,0.44-0.183
	s0.289,0.201,0.289,0.378l0.027,26.521l23.791,0.091c0.141,0.001,0.27,0.076,0.339,0.198
	C884.323,176.787,884.321,176.937,884.251,177.058z"/>
<g>
	<path fill="#E46B48" d="M314,143c-23.196,0-42,18.803-42,41.998c0,8.743,2.673,16.86,7.244,23.583l18.92-18.922v-32.586
		c0-0.41,0.333-0.741,0.742-0.741h31.236l10.221,10.222v43.363c0,0.411-0.332,0.743-0.741,0.743h-40.717
		c-0.409,0-0.742-0.332-0.742-0.743v-4.13l8.897-8.897l-5.015-5.018l-20.169,20.174C289.582,221.186,301.11,227,314,227
		c23.196,0,42-18.805,42-42.002C356,161.803,337.196,143,314,143z"/>
	<path fill="#E46B48" d="M312.189,181.729L312.189,181.729l-5.339,5.341l5.016,5.016l5.336-5.336c0.001,0,0.004-0.002,0.005-0.004
		c1.383-1.384,1.383-3.633,0-5.017C315.818,180.341,313.575,180.339,312.189,181.729L312.189,181.729z"/>
	<polygon fill="#E46B48" points="328.524,169.007 338.172,169.007 328.524,158.813 	"/>
	<path fill="#E46B48" d="M314.747,177.01c1,0,1.81-0.808,1.81-1.806l0.001-2.296h-0.001c0-1-0.811-1.81-1.81-1.81
		c-1.001,0-1.81,0.811-1.808,1.81v2.296C312.939,176.205,313.749,177.01,314.747,177.01z"/>
	<path fill="#E46B48" d="M321.921,184.184c0,1.002,0.81,1.811,1.811,1.808h2.294c1,0,1.808-0.808,1.808-1.808
		c-0.001-1-0.81-1.81-1.808-1.81h-2.294C322.732,182.374,321.921,183.184,321.921,184.184z"/>
	<path fill="#E46B48" d="M321.453,174.921l-1.623,1.62c-0.706,0.708-0.706,1.855-0.001,2.559c0.708,0.708,1.853,0.708,2.559,0
		l1.623-1.622c0.708-0.706,0.706-1.851,0-2.557C323.302,174.213,322.159,174.213,321.453,174.921z"/>
</g>
<rect x="1771.128" y="143" fill="none" width="83.832" height="84"/>
<path fill="#F26E3F" d="M1819.35,211.471H1806.2c-0.852,0-1.541,0.7-1.541,1.566c0,0.864,0.689,1.563,1.541,1.563h13.149
	c0.853,0,1.543-0.699,1.543-1.563C1820.893,212.171,1820.201,211.471,1819.35,211.471z"/>
<path fill="#F26E3F" d="M1818.288,217.521h-11.025c-0.854,0-1.543,0.699-1.543,1.564c0,0.864,0.689,1.565,1.543,1.565h1.958
	c0.535,1.528,1.958,2.63,3.648,2.63c1.688,0,3.11-1.102,3.647-2.63h1.771c0.851,0,1.541-0.701,1.541-1.565
	C1819.829,218.221,1819.139,217.521,1818.288,217.521z"/>
<path fill="#FFDC01" d="M1786.72,183.262L1786.72,183.262l-13.632,0.001c-0.535-0.001-1.068,0.201-1.479,0.609
	c-0.812,0.815-0.812,2.134,0,2.95c0.41,0.411,0.947,0.613,1.484,0.608l13.625,0.002l0,0c0.532,0,1.065-0.204,1.471-0.61
	c0.812-0.814,0.812-2.135,0-2.949C1787.785,183.466,1787.252,183.262,1786.72,183.262z"/>
<path fill="#FFDC01" d="M1786.678,155.807c-0.083-0.133-0.179-0.262-0.294-0.378c-0.812-0.814-2.13-0.812-2.94-0.001
	c-0.815,0.815-0.815,2.135,0,2.951c0.007,0.007,0.015,0.011,0.021,0.017l-0.043,0.044l9.502,9.523c0.813,0.816,2.129,0.813,2.943,0
	c0.812-0.815,0.812-2.134,0-2.949L1786.678,155.807z"/>
<path fill="#FFDC01" d="M1812.869,160.884c1.147-0.001,2.081-0.934,2.081-2.086v-13.415h-0.004c0.007-0.542-0.192-1.085-0.606-1.5
	c-0.812-0.814-2.131-0.812-2.941-0.001c-0.413,0.415-0.613,0.958-0.607,1.5h-0.001l-0.001,13.417
	C1810.788,159.951,1811.72,160.884,1812.869,160.884z"/>
<path fill="#FFDC01" d="M1843.547,158.453c0.001-0.002,0.002-0.004,0.002-0.004c0.814-0.816,0.814-2.136,0.003-2.95
	c-0.813-0.814-2.131-0.813-2.941,0c-0.102,0.1-0.189,0.21-0.266,0.324l-9.519,9.537c-0.812,0.813-0.812,2.132,0,2.948
	c0.813,0.813,2.13,0.814,2.942,0l9.809-9.826L1843.547,158.453z"/>
<path fill="#FFDC01" d="M1854.391,183.874c-0.404-0.408-0.938-0.612-1.473-0.612h-13.648l0,0c-0.531,0-1.064,0.204-1.471,0.61
	c-0.813,0.815-0.812,2.134,0,2.95c0.405,0.407,0.938,0.61,1.471,0.61l13.633-0.002c0.54,0.004,1.078-0.198,1.488-0.608
	C1855.203,186.008,1855.204,184.687,1854.391,183.874z"/>
<path fill="#FFDC01" d="M1813.002,168.832c-9.104,0-16.482,7.395-16.482,16.516c0,4.281,1.642,8.171,4.31,11.104v0.108
	c2.53,2.904,4.076,6.693,4.076,10.852c0,0.38-0.031,0.752-0.058,1.125h16.233c-0.026-0.373-0.058-0.745-0.058-1.125
	c0-4.35,1.691-8.295,4.436-11.245v-0.027c2.502-2.896,4.024-6.663,4.024-10.792C1829.483,176.227,1822.105,168.832,1813.002,168.832
	z"/>
<g>
	<path fill="#7ED321" d="M1949,208.311c-0.979,0-1.771,0.792-1.771,1.77v5.646c0,0.979,0.793,1.771,1.771,1.771
		s1.771-0.792,1.771-1.771v-5.646C1950.771,209.104,1949.979,208.311,1949,208.311z"/>
	<path fill="#7ED321" d="M1941.657,208.311c-0.979,0-1.771,0.792-1.771,1.77v5.646c0,0.979,0.793,1.771,1.771,1.771
		c0.978,0,1.771-0.792,1.771-1.771v-5.646C1943.428,209.104,1942.636,208.311,1941.657,208.311z"/>
	<path fill="#7ED321" d="M1956.252,208.311c-0.979,0-1.771,0.792-1.771,1.77v5.646c0,0.979,0.793,1.771,1.771,1.771
		s1.771-0.792,1.771-1.771v-5.646C1958.021,209.104,1957.229,208.311,1956.252,208.311z"/>
	<path fill="#7ED321" d="M1962.857,174.369c-0.207-0.402-0.529-0.95-0.849-1.492c-0.293-0.497-0.584-0.991-0.792-1.385
		c-0.822-1.33-1.761-2.74-2.751-4.23c-3.543-5.327-7.558-11.365-6.77-14.646c0.043-0.176-0.033-0.359-0.188-0.454
		c-0.154-0.094-0.353-0.079-0.49,0.04c-5.962,5.109-15.553,19.106-17.568,26.973c-0.134,0.522-0.325,1.514-0.357,1.926l-0.031,0.179
		c-0.056,0.318-0.108,0.637-0.142,0.963c-0.228,2.259,0.021,4.505,0.738,6.676c2,6.052,7.38,10.375,13.708,11.013
		c0.545,0.055,1.096,0.083,1.64,0.083h0.002c8.312,0,15.209-6.247,16.045-14.529
		C1965.452,181.516,1964.775,178.088,1962.857,174.369z M1956.822,190.489c-0.028,0.242-0.066,0.481-0.126,0.759
		c-0.188,0.852-0.52,1.667-0.979,2.42c-0.002,0.002-0.076,0.124-0.078,0.126c-0.081,0.129-0.168,0.255-0.255,0.377l-0.108,0.145
		c-0.28,0.37-0.598,0.719-0.94,1.038c-0.062,0.058-0.123,0.115-0.192,0.174c-0.095,0.084-0.191,0.164-0.286,0.239
		c-0.082,0.063-0.167,0.125-0.3,0.222c-0.075,0.057-0.15,0.112-0.232,0.165c-0.166,0.111-0.337,0.215-0.514,0.313
		c-0.062,0.034-0.123,0.065-0.256,0.132c-0.121,0.062-0.242,0.122-0.369,0.178c-0.084,0.039-0.17,0.075-0.258,0.111
		c-0.158,0.065-0.319,0.122-0.479,0.176c-0.002,0.001-0.077,0.027-0.08,0.027l-0.084,0.029c-0.215,0.067-0.437,0.121-0.65,0.168
		l-0.222,0.041c-0.169,0.033-0.339,0.059-0.517,0.078l-0.217,0.024c-0.47,0.044-0.968,0.044-1.449,0.001l-0.221-0.025
		c-0.173-0.02-0.343-0.045-0.529-0.082l-0.195-0.036c-0.224-0.049-0.442-0.103-0.659-0.17l-0.161-0.055
		c-0.16-0.056-0.322-0.113-0.483-0.178c-0.085-0.036-0.17-0.072-0.257-0.111c-0.124-0.056-0.246-0.116-0.421-0.205
		c-0.067-0.033-0.136-0.068-0.203-0.105c-0.175-0.098-0.347-0.202-0.515-0.314c-0.079-0.052-0.155-0.108-0.278-0.198
		c-0.085-0.061-0.168-0.123-0.247-0.186c-0.1-0.078-0.196-0.158-0.296-0.245c-0.064-0.056-0.127-0.112-0.188-0.169
		c-0.343-0.32-0.659-0.669-0.978-1.088l-0.072-0.096c-0.089-0.122-0.174-0.248-0.255-0.377c-0.003-0.003-0.074-0.12-0.077-0.122
		c-0.463-0.759-0.793-1.573-0.99-2.469c-0.051-0.233-0.087-0.472-0.116-0.714l-0.018-0.11c-0.028-0.276-0.046-0.558-0.046-0.842
		c0-0.204,0.015-0.406,0.03-0.636c0.003-0.208,0.04-0.663,0.077-0.917c0.544-3.584,4.938-10.676,7.823-14.158
		c2.885,3.482,7.279,10.574,7.823,14.158c0.037,0.254,0.076,0.708,0.078,0.947c0.017,0.2,0.029,0.403,0.029,0.606
		c0,0.284-0.017,0.565-0.044,0.842l0.414,0.042L1956.822,190.489z"/>
</g>
<rect x="1907" y="143" fill="none" width="84" height="84"/>
<g>
	<path fill="#EA9E31" d="M60.508,147.294C54.924,144.548,48.644,143,42,143c-11.563,0-22.036,4.675-29.63,12.236l32.587,14.816
		L60.508,147.294z"/>
	<path fill="#EA9E31" d="M63.88,149.146l-2.904,28.191l2.224,1.01c0.933-1.388,2.486-2.232,4.159-2.232
		c2.447,0,4.518,1.769,4.938,4.162l3.561,1.607c0.195,0.087,0.316,0.285,0.309,0.498c-0.009,0.214-0.147,0.4-0.349,0.471
		l-4.628,1.638c-0.918,9.631-10.635,17.716-21.376,17.717c-0.001,0-0.001,0-0.001,0c-1.064,0-2.13-0.081-3.172-0.241l-19.423,15.872
		c-0.094,0.076-0.21,0.117-0.331,0.117c-0.022,0-0.045-0.001-0.066-0.004c-0.143-0.018-0.271-0.095-0.356-0.211L15,202.021
		c-0.106-0.145-0.129-0.332-0.063-0.5c0.066-0.167,0.214-0.287,0.39-0.32l21.022-3.921c-0.153-0.127-0.305-0.256-0.456-0.389
		c-9.495-8.294-17.902-20.64-26.278-38.634C3.608,165.522,0,174.839,0,185c0,23.197,18.804,42,42,42c23.197,0,42-18.804,42-42
		C84,169.82,75.946,156.525,63.88,149.146z"/>
</g>
<g>
	<path fill="#F26E3F" d="M1672.001,209.014h-4.577c-2.754,2.781-6.284,4.451-10.137,4.451c-3.85,0-7.38-1.67-10.129-4.451h-5.069
		c-4.16,0-7.531,5.7-7.531,12.731c0,0.226,0.001,0.446,0.01,0.666h44.957c0.011-0.219,0.011-0.44,0.011-0.666
		C1679.534,214.714,1676.161,209.014,1672.001,209.014z"/>
	<path fill="#F26E3F" d="M1657.287,209.895c7.176,0,12.988-7.099,12.988-15.861c0-8.757-5.812-15.86-12.988-15.86
		c-7.169,0-12.98,7.104-12.98,15.86C1644.307,202.796,1650.118,209.895,1657.287,209.895z M1664.711,198.015
		c0,3.926-3.185,7.107-7.109,7.107c-3.926,0-7.108-3.181-7.108-7.107H1664.711z"/>
	<path fill="#FFDC01" d="M1716.438,160.24h-0.031c-0.505-5.938-5.444-10.52-11.456-10.52h-21.567
		c-6.013,0-10.952,4.581-11.459,10.52h-0.123v7.923l0.066,0.522h0.012c0.219,4.828,3.453,9.02,8.073,10.459l-3.205,14.223
		l22.754-13.689h5.449c6.348,0,11.511-5.165,11.511-11.515v-7.402L1716.438,160.24z M1711.808,168.636
		c-0.229,3.613-3.243,6.443-6.859,6.443h-6.981l-14.354,8.47l1.91-8.47h-2.142c-3.616,0-6.631-2.831-6.859-6.443l-0.022-0.201v-7.17
		c0-3.794,3.087-6.881,6.883-6.881h21.566c3.795,0,6.882,3.086,6.882,6.881l0.004,6.954L1711.808,168.636z"/>
</g>
<rect x="1634" y="143" fill="none" width="84" height="84"/>
<g>
	<path fill="#F26E3F" d="M1540.674,153.473c-16.738,0-30.309,13.569-30.309,30.307c0,16.738,13.569,30.309,30.309,30.309
		c16.736,0,30.309-13.571,30.309-30.309C1570.982,167.042,1557.41,153.473,1540.674,153.473z M1540.674,208.931
		c-13.893,0-25.152-11.26-25.152-25.151c0-13.89,11.261-25.151,25.152-25.151c13.893,0,25.152,11.261,25.152,25.151
		C1565.826,197.671,1554.566,208.931,1540.674,208.931z"/>
	<polygon fill="#FFDC01" points="1529.448,186.541 1523.355,175.839 1519.994,175.839 1519.994,191.188 1522.982,191.188 
		1522.982,180.298 1529.23,191.188 1532.438,191.188 1532.438,175.839 1529.448,175.839 	"/>
	<path fill="#FFDC01" d="M1542.941,176.13h-6.568v15.297h3.175v-5.5h3.187c1.661,0,2.94-0.374,3.836-1.122
		c0.896-0.746,1.344-2.023,1.344-3.829c0-1.653-0.449-2.875-1.35-3.664S1544.456,176.13,1542.941,176.13z M1544.131,182.74
		c-0.404,0.367-0.974,0.55-1.701,0.55h-2.882v-4.504h2.882c0.729,0,1.297,0.17,1.701,0.508c0.404,0.339,0.607,0.907,0.607,1.703
		S1544.535,182.375,1544.131,182.74z"/>
	<path fill="#FFDC01" d="M1560.799,183.832c-0.587-0.462-1.467-0.833-2.643-1.108l-2.683-0.632
		c-1.034-0.243-1.713-0.454-2.029-0.632c-0.495-0.271-0.744-0.678-0.744-1.225c0-0.594,0.252-1.057,0.755-1.389
		c0.502-0.332,1.176-0.498,2.017-0.498c0.759,0,1.396,0.127,1.905,0.383c0.764,0.388,1.175,1.041,1.232,1.96l3.067-0.001
		c-0.055-1.624-0.657-2.862-1.81-3.716c-1.152-0.853-2.543-1.28-4.173-1.28c-1.953,0-3.433,0.454-4.438,1.359
		c-1.009,0.905-1.512,2.042-1.512,3.411c0,1.5,0.515,2.603,1.544,3.307c0.608,0.422,1.726,0.812,3.353,1.172l1.654,0.363
		c0.968,0.208,1.676,0.447,2.122,0.715c0.445,0.277,0.668,0.667,0.668,1.172c0,0.864-0.453,1.456-1.365,1.773
		c-0.479,0.166-1.104,0.248-1.875,0.248c-1.282,0-2.188-0.314-2.719-0.943c-0.29-0.347-0.484-0.868-0.583-1.566h-3.048
		c0,1.589,0.574,2.839,1.729,3.749c1.15,0.909,2.733,1.363,4.745,1.363c1.972,0,3.494-0.462,4.575-1.384
		c1.08-0.923,1.618-2.083,1.618-3.478C1562.165,185.591,1561.709,184.551,1560.799,183.832z"/>
</g>
<g>
	<rect x="1498" y="143" fill="none" width="84" height="84"/>
</g>
<path fill="#DC7931" d="M191.782,291.483c-0.878,0-1.59-0.712-1.59-1.591s0.712-1.591,1.59-1.591l0,0h14.214
	c-0.388-8.172-3.583-15.606-8.639-21.373l-9.554,9.546l-0.001,0.001c-0.62,0.62-1.628,0.62-2.251-0.001
	c-0.622-0.622-0.622-1.628,0-2.25l0,0l0,0l9.6-9.594c-6.027-5.736-14.092-9.345-23.003-9.632v13.312l0,0
	c0,0.877-0.712,1.589-1.591,1.589c-0.879,0-1.592-0.712-1.592-1.589l0,0v-13.277c-8.44,0.484-16.074,3.952-21.873,9.365l9.454,9.449
	c0.001,0,0.001,0,0.002,0.001c0.621,0.621,0.621,1.628-0.001,2.25c-0.622,0.621-1.63,0.621-2.251,0l0,0l-9.433-9.426
	c-5.184,5.801-8.466,13.335-8.859,21.628h14.213h0.001c0.877,0,1.591,0.712,1.591,1.591s-0.713,1.591-1.591,1.591h-0.001H136
	C136.786,310.126,152.151,325,171.001,325c18.848,0,34.213-14.874,34.999-33.517H191.782L191.782,291.483z M174.555,312.25h-1.19
	c-0.359,1.012-1.315,1.739-2.449,1.739s-2.09-0.728-2.45-1.739h-1.316c-0.572,0-1.035-0.463-1.035-1.035
	c0-0.568,0.463-1.033,1.035-1.033h7.405c0.572,0,1.035,0.465,1.035,1.033C175.59,311.787,175.127,312.25,174.555,312.25z
	 M175.267,308.336h-8.831c-0.57,0-1.034-0.464-1.034-1.034c0-0.571,0.464-1.034,1.034-1.034h8.831c0.572,0,1.036,0.463,1.036,1.034
	C176.303,307.872,175.839,308.336,175.267,308.336z M179.37,296.046v0.018c-1.842,1.976-2.978,4.618-2.978,7.531
	c0,0.254,0.021,0.505,0.038,0.754h-10.862v-0.754v-0.608h-0.031c-0.139-2.545-1.132-4.857-2.708-6.659v-0.072
	c-1.792-1.965-2.893-4.57-2.893-7.438c0-6.109,4.956-11.061,11.067-11.061c6.114,0,11.068,4.952,11.068,11.061
	C182.072,291.583,181.05,294.106,179.37,296.046z"/>
<g>
	<path fill="#EA9E31" d="M982.021,270.226c-7.731,0-13.998,6.265-13.998,13.996c0,7.73,6.267,13.998,13.998,13.998
		c7.729,0,13.997-6.267,13.997-13.998C996.02,276.49,989.751,270.226,982.021,270.226z M982.533,293.161
		c-4.182,0.008-6.938-2.53-8.151-5.468c-0.926,0-1.852,0-2.778,0c0-0.771,0-1.543,0-2.314c0.74,0,1.479,0,2.222,0
		c-0.076-0.784-0.121-1.456,0-2.225c-0.554-0.215-1.51-0.033-2.222-0.093c0-0.772,0-1.545,0-2.315c0.927,0,1.854,0,2.778,0
		c1.24-2.684,3.777-5.144,7.689-5.283c2.673-0.094,4.913,0.854,6.58,2.225c-0.283,0.706-0.832,1.146-1.113,1.852
		c-2.475-2.627-9.061-2.342-10.376,1.113c1.819,0.215,4.043,0.029,6.021,0.093c0,0.771,0,1.543,0,2.315c-2.253,0-4.509,0-6.765,0
		c-0.299,0.605-0.158,1.568-0.091,2.317c2.286,0,4.571,0,6.855,0c0,0.771,0,1.544,0,2.314c-1.979,0-3.953,0-5.931,0
		c0.688,1.736,2.712,3.195,5.188,3.244c2.314,0.044,4.104-1.172,5.467-2.222c0.324,0.631,0.794,1.119,1.207,1.665
		C987.544,291.979,985.292,293.153,982.533,293.161z"/>
	<path fill="#EA9E31" d="M1013.939,312.342c5.031-6.062,8.061-13.848,8.061-22.343c0-19.329-15.67-34.999-35.001-34.999
		C967.67,255,952,270.67,952,289.999c0,19.33,15.67,35.001,34.999,35.001c8.827,0,16.885-3.275,23.042-8.667l-17.567-17.568
		c-2.918,2.091-6.482,3.336-10.345,3.336c-9.829,0-17.794-7.966-17.794-17.793c0-9.826,7.965-17.79,17.794-17.79
		c9.824,0,17.791,7.964,17.791,17.79c0,3.949-1.302,7.586-3.479,10.537L1013.939,312.342z"/>
</g>
<g>
	<path fill="#E46B48" d="M1128.27,292.792c-0.002,0-0.006,0-0.009,0h-7.684c-0.003,0-0.006,0-0.008,0
		c-0.724,0-1.31,0.586-1.31,1.309c0,0.725,0.586,1.311,1.31,1.311h0.001v0.001h7.698v-0.001c0.724,0,1.309-0.586,1.309-1.309
		C1129.577,293.378,1128.992,292.792,1128.27,292.792z"/>
	<path fill="#E46B48" d="M1127.672,255.08c0.804,0.818,1.304,1.939,1.304,3.178c0,2.503-2.023,4.533-4.523,4.533
		s-4.526-2.03-4.526-4.533c0-1.282,0.537-2.434,1.393-3.258c-18.075,1.374-32.316,16.488-32.316,34.944
		c0,19.36,15.671,35.056,35,35.056c19.33,0,35-15.696,35-35.056C1159,271.825,1145.276,256.918,1127.672,255.08z M1124.451,270.985
		c2.5,0,4.523,2.03,4.523,4.532c0,2.504-2.023,4.533-4.523,4.533s-4.526-2.029-4.526-4.533
		C1119.925,273.015,1121.951,270.985,1124.451,270.985z M1139.993,304.669c-0.137,0-0.27-0.022-0.399-0.041
		c-1.313,2.907-3.515,5.195-6.275,6.718c0.229,0.402,0.367,0.862,0.367,1.357c0,1.535-1.24,1.766-2.773,1.766
		c-1.363,0-2.491-0.189-2.725-1.312c-1.133,0.21-2.306,0.33-3.514,0.33c-1.18,0-2.351-0.143-3.496-0.382
		c-0.211,1.165-1.348,1.363-2.729,1.363c-1.531,0-2.775-0.23-2.775-1.766c0-0.545,0.163-1.048,0.436-1.478
		c-3.971-2.198-6.807-5.76-6.807-9.612c0-0.758,0.08-1.471,0.195-2.163c-0.675-0.517-1.433-0.731-2.167-0.487
		c-0.036-0.032-0.048-0.082-0.035-0.142c0.062-0.135,0.117-0.236,0.235-0.4c0.682-0.946,1.668-1.46,2.688-1.537
		c2.238-5.406,8.291-8.17,14.455-8.17c3.896,0,7.473,1.373,10.273,3.66c0.464-0.307,0.987-0.525,1.555-0.62
		c2.127-0.361,3.999,1.123,4.18,3.311c0.017,0.203,0.012,0.317-0.007,0.463c-0.02,0.059-0.055,0.097-0.102,0.105
		c-0.546-0.641-1.396-0.835-2.33-0.677c-0.045,0.008-0.095,0.017-0.14,0.028c-0.168,0.037-0.328,0.095-0.484,0.161
		c0.918,1.207,1.666,2.546,2.223,3.983c0.05-0.002,0.1-0.016,0.151-0.016c1.532,0,1.763,1.244,1.763,2.778
		C1141.756,303.424,1141.525,304.669,1139.993,304.669z"/>
</g>
<g>
	<path fill="#E94458" d="M1271.174,292.449h-3.011c-0.353,0-0.64,0.218-0.64,0.487v4.437c0,0.269,0.287,0.487,0.64,0.487h3.011
		c0.354,0,0.641-0.218,0.641-0.487v-4.437C1271.814,292.667,1271.526,292.449,1271.174,292.449z"/>
	<path fill="#E94458" d="M1264.757,292.449h-3.01c-0.354,0-0.64,0.218-0.64,0.487v4.437c0,0.269,0.284,0.487,0.64,0.487h3.01
		c0.354,0,0.64-0.218,0.64-0.487v-4.437C1265.396,292.667,1265.11,292.449,1264.757,292.449z"/>
	<path fill="#E94458" d="M1277.588,292.449h-3.011c-0.353,0-0.64,0.218-0.64,0.487v4.437c0,0.269,0.287,0.487,0.64,0.487h3.011
		c0.354,0,0.641-0.218,0.641-0.487v-4.437C1278.229,292.667,1277.941,292.449,1277.588,292.449z"/>
	<path fill="#E94458" d="M1258.344,292.449h-3.01c-0.354,0-0.641,0.218-0.641,0.487v4.437c0,0.269,0.287,0.487,0.641,0.487h3.01
		c0.354,0,0.641-0.218,0.641-0.487v-4.437C1258.983,292.667,1258.696,292.449,1258.344,292.449z"/>
	<path fill="#E94458" d="M1280.07,313.571L1280.07,313.571h6.801c5.67-6.221,9.129-14.491,9.129-23.571c0-19.329-15.671-35-35-35
		c-19.33,0-35,15.671-35,35c0,9.081,3.457,17.352,9.128,23.571h7.308h0.002c0.786,0,1.427,0.639,1.427,1.428
		c0,0.786-0.64,1.427-1.427,1.427h-0.002h-4.371c6.143,5.336,14.158,8.574,22.937,8.574c8.775,0,16.792-3.238,22.936-8.574h-3.864
		c-0.79-0.001-1.426-0.641-1.426-1.427C1278.645,314.209,1279.28,313.572,1280.07,313.571z M1239.229,294.676v9.373
		c0,0.629-0.513,1.142-1.145,1.142c-0.631,0-1.143-0.513-1.143-1.142v-9.373c-2.81-0.535-4.935-3.001-4.935-5.965
		c0-3.356,2.723-6.075,6.076-6.075c3.355,0,6.077,2.719,6.077,6.075C1244.161,291.675,1242.037,294.142,1239.229,294.676z
		 M1268.48,316.426h-14.455c-0.788,0-1.427-0.641-1.427-1.427c0-0.79,0.638-1.428,1.427-1.428l0,0h14.455
		c0.787,0,1.428,0.639,1.428,1.428C1269.908,315.785,1269.27,316.426,1268.48,316.426z M1262.812,305.112l-11.671,0.079
		l2.738-38.408h5.203l1.967,19.555h0.23l12.227-9.276c0.429-0.314,0.774-0.137,0.771,0.393l-0.033,7.477
		c-0.005,0.53,0.346,0.709,0.775,0.398l11.275-8.135c0.429-0.31,0.781-0.13,0.781,0.398v26.569c0,0.53-0.434,0.963-0.963,0.963
		L1262.812,305.112z"/>
	<path fill="#E94458" d="M1284.006,292.449h-3.01c-0.354,0-0.641,0.218-0.641,0.487v4.437c0,0.269,0.285,0.487,0.641,0.487h3.01
		c0.354,0,0.639-0.218,0.639-0.487v-4.437C1284.645,292.667,1284.359,292.449,1284.006,292.449z"/>
</g>
<path fill="#E46B48" d="M715.999,255C696.67,255,681,270.67,681,290s15.67,35,34.999,35C735.33,325,751,309.33,751,290
	S735.33,255,715.999,255z M733.882,293.093l2.454,0.005l0.348,8.132c-0.105,0.818-0.793,1.449-1.637,1.449
	c-0.839,0-1.525-0.625-1.634-1.436L733.882,293.093z M720.961,259.846c0.341,0,0.83,0.253,0.95,0.615l2.721,7.402
	c-0.053,0.871-0.77,1.558-1.65,1.558c-0.851,0-1.541-0.638-1.642-1.461c-0.001,0-0.005,0-0.007,0l-1.641-8.116L720.961,259.846z
	 M715.179,259.833l2.454,0.005l0.349,8.132c-0.106,0.818-0.794,1.449-1.638,1.449c-0.839,0-1.524-0.625-1.634-1.436L715.179,259.833
	z M715.172,270.965h0.029c0.083,0.839,0.784,1.497,1.645,1.497s1.561-0.657,1.643-1.497h0.038c0.083,0.839,0.782,1.495,1.644,1.495
	c0.861,0.001,1.562-0.656,1.646-1.495h0.019c0.085,0.839,0.786,1.495,1.646,1.495c0.144,0,0.28-0.024,0.413-0.059v3.382
	c0,0.388-0.194,0.709-0.434,0.709h-14.015c-0.243,0-0.438-0.322-0.438-0.709v-3.854c0.301,0.323,0.726,0.53,1.201,0.53
	c0.859,0,1.562-0.656,1.645-1.495h0.031c0.083,0.839,0.782,1.495,1.646,1.495C714.388,272.461,715.088,271.804,715.172,270.965z
	 M710.71,260.504c0.136-0.344,0.583-0.678,1.019-0.678l1.401,0.002c0,0-1.789,8.168-1.794,8.168
	c-0.117,0.805-0.799,1.423-1.634,1.423c-0.881,0-1.603-0.686-1.655-1.557L710.71,260.504z M696.758,293.093l2.454,0.005l0.349,8.132
	c-0.105,0.818-0.794,1.449-1.637,1.449c-0.839,0-1.523-0.625-1.635-1.436L696.758,293.093z M689.627,301.122l2.663-7.359
	c0.136-0.345,0.583-0.678,1.019-0.678l1.401,0.003c0,0-1.789,8.168-1.794,8.168c-0.117,0.805-0.799,1.423-1.633,1.423
	C690.401,302.679,689.681,301.993,689.627,301.122z M705.473,309.042c0,0.388-0.193,0.709-0.433,0.709h-14.016
	c-0.241,0-0.438-0.322-0.438-0.709v-3.853c0.301,0.323,0.726,0.529,1.202,0.529c0.858,0,1.561-0.656,1.645-1.495h0.031
	c0.083,0.839,0.782,1.495,1.645,1.495c0.859,0.002,1.561-0.656,1.645-1.495h0.028c0.083,0.839,0.784,1.497,1.645,1.497
	c0.862,0,1.561-0.658,1.644-1.497h0.037c0.083,0.839,0.783,1.495,1.643,1.495c0.861,0.002,1.562-0.656,1.646-1.495h0.02
	c0.085,0.839,0.785,1.495,1.646,1.495c0.144,0,0.28-0.024,0.414-0.059v3.383H705.473z M704.561,302.68
	c-0.85,0-1.541-0.638-1.641-1.462c0,0-0.005,0-0.007,0l-1.642-8.116l1.27,0.002c0.341,0,0.829,0.253,0.95,0.615l2.721,7.402
	C706.16,301.993,705.442,302.68,704.561,302.68z M724.559,295.348c-0.259,0.451-0.836,0.606-1.287,0.345
	c-0.048-0.027-0.077-0.069-0.118-0.104l-0.021,0.036l-4.131-2.385c-0.721,0.697-1.699,1.131-2.782,1.131
	c-1.09,0-2.077-0.44-2.798-1.148l-4.307,2.486l-0.005-0.008c-0.447,0.242-1.004,0.089-1.263-0.353
	c-0.255-0.443-0.106-1.002,0.324-1.27l-0.002-0.002l0.015-0.009c0.003-0.001,0.006-0.006,0.01-0.008
	c0.003-0.001,0.008-0.001,0.012-0.003l4.229-2.442c-0.13-0.395-0.218-0.811-0.218-1.249c0-1.882,1.302-3.449,3.049-3.878v-4.911
	c0-0.521,0.422-0.942,0.943-0.942s0.944,0.421,0.944,0.942v4.905c1.759,0.422,3.07,1.995,3.07,3.884c0,0.447-0.09,0.87-0.226,1.271
	l4.077,2.354l-0.013,0.02c0.051,0.019,0.103,0.023,0.149,0.05C724.666,294.319,724.821,294.896,724.559,295.348z M726.75,301.122
	l2.662-7.359c0.136-0.345,0.583-0.678,1.019-0.678l1.401,0.003c0,0-1.789,8.168-1.794,8.168c-0.118,0.805-0.799,1.423-1.634,1.423
	C727.524,302.679,726.803,301.993,726.75,301.122z M742.596,309.042c0,0.388-0.194,0.709-0.434,0.709h-14.016
	c-0.241,0-0.437-0.322-0.437-0.709v-3.853c0.301,0.323,0.725,0.529,1.201,0.529c0.857,0,1.561-0.656,1.645-1.495h0.03
	c0.083,0.839,0.783,1.495,1.646,1.495c0.859,0.002,1.561-0.656,1.645-1.495h0.029c0.083,0.839,0.784,1.497,1.644,1.497
	c0.861,0,1.56-0.658,1.643-1.497h0.037c0.082,0.839,0.782,1.495,1.644,1.495c0.86,0.002,1.561-0.656,1.646-1.495h0.02
	c0.085,0.839,0.786,1.495,1.646,1.495c0.145,0,0.282-0.024,0.414-0.059L742.596,309.042L742.596,309.042z M741.685,302.68
	c-0.851,0-1.542-0.638-1.642-1.462c-0.001,0-0.005,0-0.006,0l-1.641-8.116l1.268,0.002c0.341,0,0.83,0.253,0.95,0.615l2.722,7.402
	C743.283,301.993,742.565,302.68,741.685,302.68z"/>
<g>
	<path fill="#E94458" d="M439.529,294.105h-3.965c-0.342,0-0.617,0.276-0.617,0.617v5.323c0,0.341,0.275,0.618,0.617,0.618h3.965
		c0.34,0,0.617-0.276,0.617-0.618v-5.323C440.146,294.381,439.87,294.105,439.529,294.105z"/>
	<path fill="#E94458" d="M439.529,284.864h-3.965c-0.342,0-0.617,0.276-0.617,0.617v5.323c0,0.341,0.275,0.617,0.617,0.617h3.965
		c0.34,0,0.617-0.276,0.617-0.617v-5.323C440.146,285.14,439.87,284.864,439.529,284.864z"/>
	<path fill="#E94458" d="M439.529,275.785h-3.965c-0.342,0-0.617,0.276-0.617,0.617v5.323c0,0.341,0.275,0.618,0.617,0.618h3.965
		c0.34,0,0.617-0.276,0.617-0.618v-5.323C440.146,276.061,439.87,275.785,439.529,275.785z"/>
	<path fill="#E94458" d="M447.308,294.105h-3.965c-0.341,0-0.617,0.276-0.617,0.617v5.323c0,0.341,0.276,0.618,0.617,0.618h3.965
		c0.342,0,0.618-0.276,0.618-0.618v-5.323C447.926,294.381,447.649,294.105,447.308,294.105z"/>
	<path fill="#E94458" d="M431.764,294.105h-3.965c-0.341,0-0.617,0.276-0.617,0.617v5.323c0,0.341,0.276,0.618,0.617,0.618h3.965
		c0.342,0,0.618-0.276,0.618-0.618v-5.323C432.381,294.381,432.105,294.105,431.764,294.105z"/>
	<path fill="#E94458" d="M431.764,284.864h-3.965c-0.341,0-0.617,0.276-0.617,0.617v5.323c0,0.341,0.276,0.617,0.617,0.617h3.965
		c0.342,0,0.618-0.276,0.618-0.617v-5.323C432.381,285.14,432.105,284.864,431.764,284.864z"/>
	<path fill="#E94458" d="M431.764,275.785h-3.965c-0.341,0-0.617,0.276-0.617,0.617v5.323c0,0.341,0.276,0.618,0.617,0.618h3.965
		c0.342,0,0.618-0.276,0.618-0.618v-5.323C432.381,276.061,432.105,275.785,431.764,275.785z M429.771,281.455
		c-0.658,0-1.192-0.533-1.192-1.193c0-0.656,0.534-1.192,1.192-1.192s1.191,0.536,1.191,1.192
		C430.964,280.922,430.43,281.455,429.771,281.455z"/>
	<path fill="#E94458" d="M447.308,275.785h-3.965c-0.341,0-0.617,0.276-0.617,0.617v5.323c0,0.341,0.276,0.618,0.617,0.618h3.965
		c0.342,0,0.618-0.276,0.618-0.618v-5.323C447.926,276.061,447.649,275.785,447.308,275.785z"/>
	<path fill="#E94458" d="M447.308,284.864h-3.965c-0.341,0-0.617,0.276-0.617,0.617v5.323c0,0.341,0.276,0.617,0.617,0.617h3.965
		c0.342,0,0.618-0.276,0.618-0.617v-5.323C447.926,285.14,447.649,284.864,447.308,284.864z M445.327,290.533
		c-0.658,0-1.192-0.533-1.192-1.192c0-0.657,0.535-1.192,1.192-1.192s1.191,0.535,1.191,1.192
		C446.519,290,445.984,290.533,445.327,290.533z"/>
	<path fill="#E94458" d="M478,290c0-19.329-15.67-35-34.999-35C423.67,255,408,270.671,408,290c0,9.08,3.458,17.352,9.127,23.571
		h0.037h7.105c0.789,0,1.429,0.639,1.429,1.428c0,0.788-0.639,1.427-1.429,1.427h-4.189h-0.016c0.497,0.433,1.012,0.846,1.533,1.25
		c0.044,0.034,0.09,0.067,0.136,0.103c0.424,0.325,0.856,0.642,1.296,0.948c0.077,0.055,0.153,0.107,0.231,0.16
		c0.445,0.306,0.896,0.602,1.357,0.887c0.047,0.028,0.094,0.061,0.142,0.089c1.032,0.633,2.101,1.213,3.198,1.737
		c0.079,0.037,0.159,0.072,0.238,0.109c0.456,0.213,0.915,0.416,1.38,0.61c0.128,0.054,0.257,0.104,0.387,0.157
		c0.438,0.177,0.879,0.344,1.325,0.501c0.125,0.044,0.25,0.091,0.376,0.135c0.526,0.18,1.058,0.35,1.595,0.506
		c0.036,0.01,0.072,0.021,0.107,0.033c0.597,0.17,1.199,0.325,1.808,0.464c0.063,0.014,0.127,0.025,0.19,0.04
		c0.518,0.115,1.039,0.22,1.565,0.311c0.164,0.029,0.329,0.054,0.493,0.082c0.438,0.069,0.875,0.131,1.317,0.186
		c0.186,0.022,0.373,0.045,0.559,0.064c0.446,0.047,0.896,0.084,1.346,0.114c0.17,0.012,0.338,0.025,0.508,0.036
		c0.611,0.03,1.227,0.052,1.847,0.052c0.003,0,0.004,0,0.007,0c0.002,0,0.004,0,0.006,0c0.021,0,0.038-0.001,0.059-0.001
		c0.59-0.001,1.176-0.021,1.759-0.049c0.223-0.013,0.444-0.031,0.667-0.046c0.379-0.027,0.757-0.058,1.134-0.097
		c0.257-0.026,0.514-0.057,0.771-0.089c0.335-0.042,0.668-0.089,1.001-0.142c0.271-0.041,0.541-0.083,0.81-0.132
		c0.314-0.057,0.626-0.121,0.938-0.187c0.271-0.056,0.546-0.107,0.814-0.171c0.517-0.12,1.025-0.251,1.531-0.394
		c0.339-0.096,0.673-0.203,1.007-0.31c0.207-0.064,0.416-0.127,0.621-0.195c0.345-0.116,0.686-0.24,1.026-0.366
		c0.182-0.067,0.363-0.136,0.544-0.206c0.355-0.14,0.708-0.283,1.06-0.433c0.136-0.058,0.271-0.118,0.404-0.179
		c1.764-0.781,3.449-1.703,5.045-2.752c0.042-0.029,0.086-0.056,0.129-0.085c0.392-0.26,0.777-0.528,1.157-0.804
		c0.042-0.03,0.084-0.062,0.126-0.092c0.797-0.582,1.562-1.203,2.304-1.849h-4.012c-0.791-0.001-1.429-0.639-1.429-1.427
		c0-0.79,0.638-1.427,1.429-1.428l0,0h6.965c0.176-0.193,0.342-0.394,0.515-0.59c0.122-0.141,0.251-0.275,0.371-0.417h-0.009
		C474.895,306.471,478,298.6,478,290z M450.317,316.426h-14.456c-0.789,0-1.428-0.639-1.428-1.427c0-0.79,0.639-1.428,1.428-1.428
		l0,0h14.456c0.788,0,1.427,0.639,1.427,1.428C451.744,315.787,451.106,316.426,450.317,316.426z M454.342,272.257
		c-0.077,0.412-0.437,0.71-0.854,0.71h-1.318v31.53c0,0.348-0.277,0.63-0.618,0.63h-27.79c-0.341,0-0.618-0.282-0.618-0.63v-31.53
		h-1.247c-0.418,0-0.776-0.298-0.854-0.709c-0.078-0.411,0.148-0.82,0.538-0.972l15.724-6.163c0.103-0.04,0.21-0.061,0.318-0.061
		c0.106,0,0.214,0.02,0.314,0.06l15.866,6.163C454.192,271.437,454.419,271.845,454.342,272.257z M466.065,295.168v8.32
		c0,0.63-0.511,1.144-1.144,1.144c-0.631,0-1.142-0.514-1.142-1.144v-8.32c-2.809-0.535-4.934-3-4.934-5.965
		c0-3.355,2.722-6.077,6.075-6.077c3.356,0,6.076,2.721,6.076,6.077C470.999,292.169,468.875,294.634,466.065,295.168z"/>
</g>
<path fill="#DC7931" d="M852.001,255C832.67,255,817,270.67,817,289.999c0,19.33,15.67,35.001,35.001,35.001
	C871.33,325,887,309.329,887,289.999C887,270.67,871.33,255,852.001,255z M873.043,283.381l-21.084,36.07
	c-0.061,0.102-0.169,0.162-0.283,0.162c-0.026,0-0.056-0.004-0.085-0.013c-0.141-0.037-0.239-0.167-0.241-0.313l-0.08-21.275h-20.03
	c-0.117,0-0.226-0.062-0.284-0.164c-0.059-0.101-0.059-0.225,0-0.326l21.348-36.971c0.073-0.128,0.226-0.191,0.368-0.153
	c0.144,0.038,0.241,0.167,0.241,0.315l0.021,22.101l19.826,0.076c0.117,0.001,0.226,0.063,0.282,0.165
	C873.104,283.156,873.101,283.28,873.043,283.381z"/>
<g>
	<path fill="#E46B48" d="M307,255c-19.33,0-35,15.669-35,34.999c0,7.286,2.228,14.05,6.036,19.652l15.767-15.769v-27.155
		c0-0.342,0.277-0.618,0.618-0.618h26.03l8.518,8.518v36.136c0,0.343-0.276,0.619-0.617,0.619h-33.931
		c-0.341,0-0.618-0.275-0.618-0.619v-3.441l7.415-7.415l-4.179-4.182l-16.808,16.812C286.652,320.155,296.258,325,307,325
		c19.33,0,35-15.671,35-35.001S326.33,255,307,255z"/>
	<path fill="#E46B48" d="M305.491,287.274L305.491,287.274l-4.449,4.451l4.18,4.18l4.446-4.447c0.001,0,0.003-0.002,0.004-0.003
		c1.152-1.153,1.152-3.027,0-4.18C308.515,286.118,306.646,286.116,305.491,287.274L305.491,287.274z"/>
	<polygon fill="#E46B48" points="319.104,276.672 327.144,276.672 319.104,268.178 	"/>
	<path fill="#E46B48" d="M307.622,283.342c0.834,0,1.508-0.673,1.508-1.505l0.001-1.913h-0.001c0-0.833-0.676-1.508-1.508-1.508
		c-0.834,0-1.508,0.675-1.506,1.508v1.913C306.116,282.67,306.791,283.342,307.622,283.342z"/>
	<path fill="#E46B48" d="M313.601,289.32c0,0.835,0.675,1.509,1.509,1.506h1.912c0.833,0,1.507-0.673,1.507-1.506
		c-0.001-0.833-0.675-1.508-1.507-1.508h-1.912C314.276,287.812,313.601,288.486,313.601,289.32z"/>
	<path fill="#E46B48" d="M313.21,281.601l-1.352,1.35c-0.588,0.59-0.588,1.546-0.001,2.133c0.591,0.59,1.544,0.59,2.133,0
		l1.352-1.352c0.59-0.588,0.588-1.542,0-2.131C314.752,281.011,313.799,281.011,313.21,281.601z"/>
</g>
<rect x="1771.105" y="255" fill="none" width="69.86" height="70"/>
<path fill="#F26E3F" d="M1811.291,312.059h-10.959c-0.708,0-1.283,0.583-1.283,1.306c0,0.72,0.575,1.303,1.283,1.303h10.959
	c0.71,0,1.286-0.583,1.286-1.303C1812.577,312.642,1812.001,312.059,1811.291,312.059z"/>
<path fill="#F26E3F" d="M1810.406,317.101h-9.188c-0.711,0-1.286,0.583-1.286,1.304c0,0.72,0.575,1.304,1.286,1.304h1.632
	c0.446,1.273,1.633,2.192,3.04,2.192c1.406,0,2.594-0.918,3.041-2.192h1.476c0.709,0,1.284-0.584,1.284-1.304
	C1811.689,317.684,1811.115,317.101,1810.406,317.101z"/>
<path fill="#FFDC01" d="M1784.1,288.551L1784.1,288.551l-11.358,0.001c-0.446-0.001-0.893,0.167-1.232,0.508
	c-0.677,0.679-0.677,1.778,0,2.458c0.343,0.342,0.79,0.51,1.238,0.507l11.354,0.001l0,0c0.443,0,0.889-0.169,1.226-0.508
	c0.678-0.679,0.678-1.78,0-2.458C1784.987,288.721,1784.543,288.551,1784.1,288.551z"/>
<path fill="#FFDC01" d="M1784.064,265.672c-0.068-0.111-0.148-0.218-0.244-0.315c-0.68-0.679-1.775-0.677-2.451-0.001
	c-0.681,0.68-0.681,1.779,0,2.459c0.005,0.005,0.012,0.009,0.019,0.014l-0.036,0.037l7.918,7.936c0.679,0.68,1.774,0.678,2.453,0
	c0.678-0.68,0.678-1.779,0-2.458L1784.064,265.672z"/>
<path fill="#FFDC01" d="M1805.891,269.903c0.957,0,1.734-0.778,1.734-1.738v-11.179h-0.003c0.005-0.452-0.161-0.904-0.506-1.25
	c-0.679-0.679-1.775-0.677-2.452,0c-0.344,0.346-0.511,0.798-0.506,1.25h-0.001l-0.001,11.181
	C1804.156,269.125,1804.933,269.903,1805.891,269.903z"/>
<path fill="#FFDC01" d="M1831.455,267.877c0.001-0.001,0.002-0.003,0.002-0.003c0.679-0.68,0.679-1.78,0.002-2.458
	c-0.678-0.679-1.775-0.678-2.451,0c-0.084,0.083-0.158,0.175-0.221,0.27l-7.934,7.947c-0.677,0.678-0.677,1.777,0,2.457
	c0.68,0.678,1.775,0.679,2.453,0l8.173-8.188L1831.455,267.877z"/>
<path fill="#FFDC01" d="M1840.492,289.061c-0.338-0.34-0.783-0.51-1.229-0.51h-11.374l0,0c-0.442,0-0.888,0.17-1.226,0.509
	c-0.679,0.679-0.678,1.778,0,2.458c0.338,0.339,0.782,0.508,1.226,0.508l11.36-0.001c0.45,0.003,0.898-0.165,1.241-0.507
	C1841.169,290.84,1841.17,289.739,1840.492,289.061z"/>
<path fill="#FFDC01" d="M1806.002,276.526c-7.586,0-13.735,6.162-13.735,13.763c0,3.567,1.367,6.809,3.591,9.253v0.09
	c2.107,2.419,3.396,5.577,3.396,9.043c0,0.317-0.026,0.627-0.048,0.938h13.528c-0.022-0.312-0.05-0.621-0.05-0.938
	c0-3.625,1.411-6.913,3.697-9.371v-0.022c2.084-2.414,3.354-5.552,3.354-8.993C1819.736,282.688,1813.588,276.526,1806.002,276.526z
	"/>
<g>
	<path fill="#7ED321" d="M1942,309.426c-0.814,0-1.476,0.661-1.476,1.476v4.705c0,0.814,0.659,1.476,1.476,1.476
		s1.477-0.661,1.477-1.476v-4.705C1943.477,310.087,1942.816,309.426,1942,309.426z"/>
	<path fill="#7ED321" d="M1935.881,309.426c-0.813,0-1.477,0.661-1.477,1.476v4.705c0,0.814,0.662,1.476,1.477,1.476
		c0.816,0,1.478-0.661,1.478-1.476v-4.705C1937.357,310.087,1936.697,309.426,1935.881,309.426z"/>
	<path fill="#7ED321" d="M1948.043,309.426c-0.814,0-1.476,0.661-1.476,1.476v4.705c0,0.814,0.661,1.476,1.476,1.476
		s1.477-0.661,1.477-1.476v-4.705C1949.52,310.087,1948.857,309.426,1948.043,309.426z"/>
	<path fill="#7ED321" d="M1953.549,281.141c-0.174-0.335-0.441-0.792-0.707-1.243c-0.244-0.414-0.486-0.826-0.66-1.154
		c-0.686-1.108-1.467-2.283-2.293-3.525c-2.951-4.438-6.297-9.47-5.641-12.205c0.035-0.147-0.027-0.299-0.156-0.377
		c-0.129-0.079-0.294-0.066-0.408,0.033c-4.969,4.258-12.961,15.922-14.643,22.477c-0.11,0.435-0.27,1.262-0.297,1.605l-0.025,0.149
		c-0.047,0.266-0.092,0.531-0.119,0.803c-0.188,1.883,0.019,3.754,0.615,5.563c1.666,5.043,6.15,8.646,11.424,9.177
		c0.453,0.047,0.913,0.07,1.367,0.07l0,0c6.928,0,12.676-5.206,13.371-12.107C1955.711,287.097,1955.146,284.24,1953.549,281.141z
		 M1948.52,294.574c-0.024,0.202-0.057,0.401-0.104,0.633c-0.158,0.71-0.432,1.389-0.816,2.017
		c-0.002,0.001-0.063,0.103-0.063,0.105c-0.068,0.107-0.141,0.212-0.213,0.314l-0.092,0.121c-0.234,0.308-0.496,0.599-0.783,0.865
		c-0.051,0.048-0.104,0.096-0.16,0.146c-0.08,0.07-0.16,0.137-0.24,0.199c-0.066,0.053-0.139,0.104-0.248,0.185
		c-0.063,0.048-0.127,0.094-0.195,0.138c-0.139,0.092-0.279,0.179-0.428,0.26c-0.051,0.029-0.102,0.054-0.212,0.11
		c-0.102,0.051-0.203,0.102-0.308,0.148c-0.071,0.032-0.143,0.063-0.215,0.093c-0.134,0.054-0.269,0.102-0.399,0.146
		c-0.003,0.001-0.065,0.022-0.067,0.023l-0.069,0.024c-0.179,0.056-0.362,0.101-0.541,0.14l-0.187,0.034
		c-0.141,0.027-0.281,0.049-0.43,0.065l-0.18,0.02c-0.394,0.037-0.808,0.037-1.209,0.001l-0.185-0.021
		c-0.145-0.017-0.285-0.038-0.44-0.068l-0.164-0.03c-0.186-0.041-0.367-0.085-0.549-0.142l-0.134-0.045
		c-0.135-0.046-0.27-0.094-0.403-0.148c-0.07-0.03-0.142-0.061-0.214-0.093c-0.104-0.046-0.204-0.097-0.352-0.171
		c-0.058-0.027-0.113-0.057-0.17-0.087c-0.146-0.082-0.287-0.168-0.429-0.262c-0.065-0.043-0.129-0.09-0.231-0.165
		c-0.07-0.051-0.142-0.103-0.205-0.154c-0.084-0.065-0.166-0.132-0.248-0.205c-0.053-0.046-0.104-0.094-0.156-0.141
		c-0.285-0.267-0.549-0.558-0.812-0.907l-0.062-0.08c-0.071-0.102-0.145-0.207-0.211-0.314c-0.002-0.003-0.062-0.1-0.063-0.102
		c-0.387-0.632-0.662-1.311-0.826-2.058c-0.043-0.193-0.072-0.393-0.099-0.595l-0.014-0.092c-0.022-0.23-0.038-0.465-0.038-0.701
		c0-0.17,0.012-0.339,0.026-0.53c0.002-0.174,0.032-0.553,0.063-0.764c0.453-2.987,4.115-8.896,6.52-11.799
		c2.402,2.902,6.065,8.812,6.52,11.798c0.031,0.211,0.063,0.59,0.065,0.789c0.014,0.167,0.024,0.335,0.024,0.505
		c0,0.236-0.014,0.471-0.037,0.701l0.346,0.036L1948.52,294.574z"/>
</g>
<rect x="1907" y="255" fill="none" width="70" height="70"/>
<g>
	<path fill="#EA9E31" d="M50.424,258.579C45.77,256.29,40.536,255,35,255c-9.636,0-18.363,3.896-24.692,10.197l27.156,12.347
		L50.424,258.579z"/>
	<path fill="#EA9E31" d="M53.233,260.121l-2.419,23.493l1.853,0.842c0.778-1.156,2.072-1.86,3.466-1.86
		c2.039,0,3.765,1.474,4.115,3.468l2.968,1.339c0.163,0.073,0.264,0.237,0.257,0.415c-0.007,0.178-0.123,0.333-0.291,0.392
		l-3.857,1.365c-0.765,8.026-8.862,14.763-17.813,14.764c-0.001,0-0.001,0-0.001,0c-0.887,0-1.775-0.067-2.644-0.201l-16.186,13.227
		c-0.079,0.062-0.175,0.098-0.276,0.098c-0.019,0-0.038-0.001-0.056-0.003c-0.119-0.015-0.226-0.079-0.296-0.176l-9.553-13.1
		c-0.088-0.121-0.107-0.277-0.053-0.417c0.055-0.139,0.179-0.239,0.325-0.267l17.519-3.267c-0.127-0.106-0.254-0.214-0.38-0.324
		c-7.913-6.912-14.919-17.2-21.898-32.195C3.007,273.769,0,281.532,0,290c0,19.331,15.67,35,35,35c19.331,0,35-15.67,35-35
		C70,277.35,63.289,266.271,53.233,260.121z"/>
</g>
<g>
	<path fill="#F26E3F" d="M1665.668,310.012h-3.814c-2.295,2.317-5.236,3.709-8.446,3.709c-3.207,0-6.15-1.392-8.441-3.709h-4.225
		c-3.468,0-6.275,4.75-6.275,10.609c0,0.188,0.001,0.372,0.007,0.555h37.465c0.01-0.183,0.01-0.366,0.01-0.555
		C1671.945,314.762,1669.135,310.012,1665.668,310.012z"/>
	<path fill="#F26E3F" d="M1653.406,310.746c5.979,0,10.822-5.916,10.822-13.218c0-7.298-4.844-13.217-10.822-13.217
		c-5.976,0-10.817,5.919-10.817,13.217C1642.589,304.83,1647.432,310.746,1653.406,310.746z M1659.593,300.846
		c0,3.271-2.653,5.922-5.925,5.922s-5.925-2.65-5.925-5.922H1659.593z"/>
	<path fill="#FFDC01" d="M1702.698,269.367h-0.027c-0.421-4.949-4.537-8.766-9.547-8.766h-17.973c-5.012,0-9.127,3.817-9.55,8.766
		h-0.103v6.603l0.055,0.436h0.011c0.183,4.023,2.878,7.517,6.729,8.716l-2.671,11.852l18.961-11.408h4.541
		c5.29,0,9.593-4.304,9.593-9.596v-6.168L1702.698,269.367z M1698.84,276.363c-0.191,3.011-2.703,5.369-5.717,5.369h-5.818
		l-11.962,7.059l1.592-7.059h-1.784c-3.014,0-5.524-2.358-5.717-5.369l-0.019-0.168v-5.975c0-3.162,2.571-5.734,5.734-5.734h17.974
		c3.162,0,5.733,2.572,5.733,5.734l0.005,5.794L1698.84,276.363z"/>
</g>
<rect x="1634" y="255" fill="none" width="70" height="70"/>
<g>
	<path fill="#F26E3F" d="M1533.562,263.727c-13.948,0-25.258,11.308-25.258,25.256c0,13.948,11.31,25.257,25.258,25.257
		c13.946,0,25.257-11.31,25.257-25.257C1558.818,275.035,1547.509,263.727,1533.562,263.727z M1533.562,309.942
		c-11.577,0-20.961-9.383-20.961-20.959c0-11.575,9.384-20.959,20.961-20.959c11.576,0,20.959,9.384,20.959,20.959
		C1554.521,300.56,1545.139,309.942,1533.562,309.942z"/>
	<polygon fill="#FFDC01" points="1524.207,291.284 1519.13,282.366 1516.328,282.366 1516.328,295.156 1518.818,295.156 
		1518.818,286.082 1524.025,295.156 1526.698,295.156 1526.698,282.366 1524.207,282.366 	"/>
	<path fill="#FFDC01" d="M1535.451,282.608h-5.475v12.748h2.646v-4.583h2.654c1.385,0,2.451-0.312,3.197-0.935
		c0.746-0.622,1.118-1.687,1.118-3.191c0-1.377-0.374-2.395-1.124-3.053C1537.72,282.936,1536.713,282.608,1535.451,282.608z
		 M1536.442,288.117c-0.337,0.306-0.812,0.458-1.418,0.458h-2.401v-3.753h2.401c0.605,0,1.081,0.142,1.418,0.423
		c0.337,0.283,0.506,0.756,0.506,1.419C1536.948,287.328,1536.779,287.812,1536.442,288.117z"/>
	<path fill="#FFDC01" d="M1550.332,289.026c-0.488-0.385-1.222-0.694-2.202-0.924l-2.233-0.527
		c-0.862-0.202-1.429-0.378-1.692-0.526c-0.412-0.226-0.619-0.565-0.619-1.021c0-0.495,0.209-0.881,0.629-1.158
		c0.418-0.276,0.979-0.415,1.681-0.415c0.633,0,1.161,0.106,1.588,0.319c0.637,0.323,0.979,0.868,1.026,1.634l2.558-0.001
		c-0.045-1.353-0.549-2.385-1.509-3.097c-0.96-0.711-2.118-1.067-3.478-1.067c-1.627,0-2.859,0.378-3.698,1.132
		c-0.841,0.754-1.26,1.701-1.26,2.842c0,1.25,0.429,2.168,1.286,2.755c0.508,0.352,1.438,0.677,2.794,0.977l1.379,0.302
		c0.807,0.173,1.396,0.372,1.769,0.596c0.371,0.23,0.558,0.556,0.558,0.977c0,0.72-0.378,1.213-1.138,1.478
		c-0.4,0.138-0.923,0.207-1.562,0.207c-1.069,0-1.825-0.262-2.266-0.786c-0.242-0.289-0.404-0.723-0.486-1.305h-2.54
		c0,1.325,0.479,2.366,1.442,3.124c0.959,0.758,2.276,1.136,3.953,1.136c1.644,0,2.912-0.385,3.812-1.154s1.349-1.735,1.349-2.898
		C1551.471,290.493,1551.091,289.625,1550.332,289.026z"/>
</g>
<g>
	<rect x="1498" y="255" fill="none" width="70" height="70"/>
</g>
<g>
	<path fill="#E94458" d="M603,0c-32.032,0-58,25.966-58,57.997c0,12.073,4.286,24.219,10.598,33.502l25.491-25.49l0.042-46.575
		c0-0.567,0.459-1.023,1.024-1.023h43.136l14.116,14.116v59.882c0,0.566-0.459,1.026-1.022,1.026h-56.229
		c-0.565,0-1.024-0.46-1.024-1.026v-5.704l15.378-15.572l-6.771-6.699l-31.1,30.915C569.28,107.971,585.199,116,603,116
		c32.034,0,58-25.969,58-58.003C661,25.966,635.034,0,603,0z"/>
	<path fill="#E94458" d="M600.5,53.482h-0.003l-7.373,7.375l6.927,6.927l7.37-7.369c0.002,0,0.005-0.003,0.005-0.006
		c1.911-1.91,1.911-5.016,0-6.927C605.511,51.566,602.414,51.563,600.5,53.482L600.5,53.482z"/>
	<polygon fill="#E94458" points="623.437,34.472 636.021,34.472 623.437,21.838 	"/>
	<path fill="#E94458" d="M604.031,46.967c1.381,0,2.5-1.115,2.5-2.494v-3.17l0,0c0-1.381-1.122-2.5-2.5-2.5
		c-1.381,0-2.5,1.119-2.497,2.5v3.17C601.535,45.854,602.653,46.967,604.031,46.967z"/>
	<path fill="#E94458" d="M613.94,56.873c0,1.384,1.119,2.499,2.5,2.496h3.168c1.381,0,2.497-1.115,2.497-2.496s-1.119-2.5-2.497-2.5
		h-3.168C615.059,54.373,613.94,55.492,613.94,56.873z"/>
	<path fill="#E94458" d="M613.292,44.081l-2.241,2.237c-0.975,0.979-0.975,2.562,0,3.534c0.978,0.979,2.559,0.979,3.534,0l2.24-2.24
		c0.978-0.975,0.975-2.556,0-3.531C615.848,43.104,614.267,43.104,613.292,44.081z"/>
</g>
<g>
	<path fill="#E94458" d="M587,143c-23.196,0-42,18.803-42,41.998c0,8.742,3.104,17.537,7.674,24.26l18.459-18.458l0.031-33.727
		c0-0.411,0.333-0.741,0.742-0.741h31.236l10.222,10.222v43.363c0,0.41-0.333,0.743-0.74,0.743h-40.718
		c-0.409,0-0.742-0.333-0.742-0.743v-4.131L582.3,194.51l-4.903-4.851l-22.521,22.387C562.582,221.186,574.11,227,587,227
		c23.197,0,42-18.805,42-42.002C629,161.803,610.197,143,587,143z"/>
	<path fill="#E94458" d="M585.19,181.729h-0.002l-5.339,5.341l5.016,5.016l5.337-5.336c0.001,0,0.004-0.002,0.004-0.005
		c1.383-1.383,1.383-3.632,0-5.016C588.818,180.341,586.576,180.339,585.19,181.729L585.19,181.729z"/>
	<polygon fill="#E94458" points="601.799,167.962 610.912,167.962 601.799,158.813 	"/>
	<path fill="#E94458" d="M587.747,177.011c1,0,1.811-0.808,1.811-1.807v-2.295l0,0c0-1-0.812-1.811-1.811-1.811
		c-1,0-1.81,0.811-1.808,1.811v2.295C585.939,176.204,586.749,177.011,587.747,177.011z"/>
	<path fill="#E94458" d="M594.922,184.184c0,1.002,0.81,1.81,1.81,1.808h2.294c1,0,1.808-0.808,1.808-1.808s-0.81-1.81-1.808-1.81
		h-2.294C595.732,182.374,594.922,183.184,594.922,184.184z"/>
	<path fill="#E94458" d="M594.453,174.921l-1.623,1.62c-0.706,0.708-0.706,1.855,0,2.56c0.708,0.708,1.854,0.708,2.56,0l1.622-1.623
		c0.708-0.705,0.706-1.851,0-2.557C596.304,174.213,595.159,174.213,594.453,174.921z"/>
</g>
<g>
	<path fill="#E94458" d="M580,255c-19.33,0-35,15.669-35,34.998c0,7.285,2.586,14.614,6.396,20.217l15.382-15.382l0.025-28.105
		c0-0.343,0.278-0.617,0.618-0.617h26.03l8.518,8.518v36.137c0,0.342-0.277,0.619-0.617,0.619h-33.932
		c-0.34,0-0.618-0.277-0.618-0.619v-3.443l9.28-9.396l-4.085-4.042l-18.767,18.655C559.652,320.154,569.258,325,580,325
		c19.331,0,35-15.671,35-35.002C615,270.669,599.331,255,580,255z"/>
	<path fill="#E94458" d="M578.492,287.273h-0.001l-4.449,4.451l4.18,4.18l4.447-4.446c0.001,0,0.003-0.002,0.003-0.005
		c1.152-1.152,1.152-3.026,0-4.18C581.515,286.117,579.646,286.116,578.492,287.273L578.492,287.273z"/>
	<polygon fill="#E94458" points="592.333,275.802 599.927,275.802 592.333,268.178 	"/>
	<path fill="#E94458" d="M580.622,283.343c0.833,0,1.509-0.674,1.509-1.506v-1.912l0,0c0-0.834-0.677-1.51-1.509-1.51
		c-0.833,0-1.508,0.676-1.506,1.51v1.912C579.116,282.67,579.791,283.343,580.622,283.343z"/>
	<path fill="#E94458" d="M586.602,289.319c0,0.835,0.675,1.508,1.508,1.507h1.912c0.833,0,1.507-0.673,1.507-1.507
		c0-0.833-0.675-1.508-1.507-1.508h-1.912C587.276,287.812,586.602,288.486,586.602,289.319z"/>
	<path fill="#E94458" d="M586.21,281.601l-1.352,1.351c-0.588,0.59-0.588,1.546,0,2.133c0.59,0.59,1.544,0.59,2.133,0l1.352-1.353
		c0.59-0.588,0.588-1.542,0-2.131C587.753,281.011,586.799,281.011,586.21,281.601z"/>
</g>
<g>
	<path fill="#EA9E31" d="M1420,0c-32.031,0-58,25.966-58,57.997c0,12.073,4.287,24.219,10.598,33.502l25.492-25.49l0.041-46.575
		c0-0.567,0.461-1.023,1.025-1.023h43.135l14.117,14.115v59.883c0,0.566-0.459,1.026-1.023,1.026h-56.229
		c-0.564,0-1.025-0.46-1.025-1.026v-5.704l15.379-15.572l-6.77-6.699l-31.1,30.915C1386.279,107.971,1402.199,116,1420,116
		c32.033,0,58-25.969,58-58.003C1478,25.966,1452.033,0,1420,0z"/>
	<path fill="#EA9E31" d="M1417.5,53.482h-0.002l-7.373,7.375l6.928,6.927l7.369-7.369c0.002,0,0.006-0.003,0.006-0.006
		c1.91-1.91,1.91-5.016,0-6.927C1422.512,51.566,1419.414,51.563,1417.5,53.482L1417.5,53.482z"/>
	<polygon fill="#EA9E31" points="1440.438,34.472 1453.021,34.472 1440.438,21.838 	"/>
	<path fill="#EA9E31" d="M1421.031,46.967c1.381,0,2.5-1.115,2.5-2.494v-3.17l0,0c0-1.381-1.121-2.5-2.5-2.5
		c-1.381,0-2.5,1.119-2.496,2.5v3.17C1418.535,45.854,1419.654,46.967,1421.031,46.967z"/>
	<path fill="#EA9E31" d="M1430.939,56.873c0,1.384,1.119,2.499,2.5,2.496h3.168c1.381,0,2.496-1.115,2.496-2.496
		s-1.117-2.5-2.496-2.5h-3.168C1432.059,54.373,1430.939,55.492,1430.939,56.873z"/>
	<path fill="#EA9E31" d="M1430.293,44.081l-2.242,2.237c-0.975,0.979-0.975,2.562,0,3.534c0.979,0.979,2.561,0.979,3.535,0
		l2.24-2.24c0.979-0.975,0.975-2.556,0-3.531C1432.848,43.104,1431.268,43.104,1430.293,44.081z"/>
</g>
<g>
	<path fill="#EA9E31" d="M1404,143c-23.195,0-42,18.803-42,41.998c0,8.742,3.104,17.537,7.674,24.26l18.459-18.458l0.031-33.727
		c0-0.411,0.334-0.741,0.742-0.741h31.236l10.221,10.222v43.363c0,0.41-0.332,0.743-0.74,0.743h-40.717
		c-0.408,0-0.742-0.333-0.742-0.743v-4.131l11.137-11.276l-4.902-4.851l-22.521,22.387c7.705,9.14,19.232,14.954,32.123,14.954
		c23.197,0,42-18.805,42-42.002C1446,161.803,1427.197,143,1404,143z"/>
	<path fill="#EA9E31" d="M1402.189,181.729h-0.002l-5.338,5.341l5.016,5.016l5.338-5.336c0,0,0.004-0.002,0.004-0.005
		c1.383-1.383,1.383-3.632,0-5.016C1405.818,180.341,1403.576,180.339,1402.189,181.729L1402.189,181.729z"/>
	<polygon fill="#EA9E31" points="1418.799,167.962 1427.912,167.962 1418.799,158.813 	"/>
	<path fill="#EA9E31" d="M1404.746,177.011c1,0,1.811-0.808,1.811-1.807v-2.295l0,0c0-1-0.811-1.811-1.811-1.811
		c-0.998,0-1.809,0.811-1.807,1.811v2.295C1402.939,176.204,1403.75,177.011,1404.746,177.011z"/>
	<path fill="#EA9E31" d="M1411.922,184.184c0,1.002,0.811,1.81,1.811,1.808h2.293c1,0,1.809-0.808,1.809-1.808
		s-0.811-1.81-1.809-1.81h-2.293C1412.732,182.374,1411.922,183.184,1411.922,184.184z"/>
	<path fill="#EA9E31" d="M1411.453,174.921l-1.623,1.62c-0.705,0.708-0.705,1.855,0,2.56c0.709,0.708,1.854,0.708,2.561,0
		l1.621-1.623c0.709-0.705,0.707-1.851,0-2.557C1413.305,174.213,1412.158,174.213,1411.453,174.921z"/>
</g>
<g>
	<path fill="#EA9E31" d="M1397,255c-19.33,0-35,15.669-35,34.998c0,7.285,2.586,14.614,6.396,20.217l15.381-15.382l0.025-28.105
		c0-0.343,0.279-0.617,0.619-0.617h26.029l8.52,8.518v36.137c0,0.342-0.277,0.619-0.617,0.619h-33.932
		c-0.34,0-0.619-0.277-0.619-0.619v-3.443l9.281-9.396l-4.086-4.042l-18.768,18.655c6.422,7.616,16.027,12.462,26.77,12.462
		c19.33,0,35-15.671,35-35.002C1432,270.669,1416.33,255,1397,255z"/>
	<path fill="#EA9E31" d="M1395.492,287.273h-0.002l-4.449,4.451l4.18,4.18l4.447-4.446c0.002,0,0.004-0.002,0.004-0.005
		c1.152-1.152,1.152-3.026,0-4.18C1398.516,286.117,1396.646,286.116,1395.492,287.273L1395.492,287.273z"/>
	<polygon fill="#EA9E31" points="1409.334,275.802 1416.928,275.802 1409.334,268.178 	"/>
	<path fill="#EA9E31" d="M1397.623,283.343c0.832,0,1.508-0.674,1.508-1.506v-1.912l0,0c0-0.834-0.676-1.51-1.508-1.51
		c-0.834,0-1.51,0.676-1.508,1.51v1.912C1396.115,282.67,1396.791,283.343,1397.623,283.343z"/>
	<path fill="#EA9E31" d="M1403.602,289.319c0,0.835,0.676,1.508,1.508,1.507h1.912c0.834,0,1.508-0.673,1.508-1.507
		c0-0.833-0.676-1.508-1.508-1.508h-1.912C1404.277,287.812,1403.602,288.486,1403.602,289.319z"/>
	<path fill="#EA9E31" d="M1403.211,281.601l-1.352,1.351c-0.59,0.59-0.59,1.546,0,2.133c0.59,0.59,1.543,0.59,2.133,0l1.352-1.353
		c0.59-0.588,0.588-1.542,0-2.131C1404.754,281.011,1403.799,281.011,1403.211,281.601z"/>
</g>
</svg>
